<svg width="392" height="299" fill="none" xmlns="http://www.w3.org/2000/svg"><g filter="url(#a)" stroke="#D0D0D0" stroke-width="16" stroke-linecap="round"><path d="M175.681 213.282s57.583 3.112 83.119-4.3 25.5-45.9 0-55.392c-25.5-9.492-34.218 24.425-34.218 24.425M76.631 254.857s86.554-7.82 124.712 0 26.008 30.255 7.924 31.28c-18.084 1.025-34.771-10.857-34.771-10.857M260.856 254.795h34.412M98.856 213.795h34.412"/></g><g filter="url(#b)"><g filter="url(#c)"><path d="M235.562 233.765a73.73 73.73 0 0 1-5.857.235H92.181a71.921 71.921 0 0 1-51.023-20.968A71.906 71.906 0 0 1 20 162.087a71.91 71.91 0 0 1 44.579-66.515 71.913 71.913 0 0 1 27.602-5.397h51.276C160.081 53.6 198.368 28 242.941 28c59.827 0 108.327 46.115 108.327 103s-48.5 103-108.327 103c-2.48 0-4.94-.078-7.379-.235Z" fill="url(#d)"/><path d="M242.941 233c7.286 0 14.567-.698 21.64-2.074a110.812 110.812 0 0 0 20.152-5.948 109.195 109.195 0 0 0 18.234-9.41 107.159 107.159 0 0 0 15.884-12.461 104.087 104.087 0 0 0 13.101-15.098 100.538 100.538 0 0 0 9.89-17.323 97.878 97.878 0 0 0 6.248-19.139A97.869 97.869 0 0 0 350.268 131c0-6.918-.733-13.831-2.178-20.548a97.848 97.848 0 0 0-6.248-19.138 100.528 100.528 0 0 0-9.89-17.323 104.088 104.088 0 0 0-13.101-15.098 107.156 107.156 0 0 0-15.884-12.46 109.18 109.18 0 0 0-18.234-9.41 110.86 110.86 0 0 0-20.152-5.949A113.563 113.563 0 0 0 242.941 29c-21.371 0-42.01 5.952-59.687 17.214-8.52 5.428-16.177 11.98-22.757 19.474-6.621 7.541-12.048 15.919-16.13 24.9l-.267.587H92.181c-9.574 0-18.86 1.874-27.602 5.572a70.929 70.929 0 0 0-12.045 6.538 71.38 71.38 0 0 0-19.156 19.155 70.94 70.94 0 0 0-6.538 12.045c-3.697 8.742-5.572 18.029-5.572 27.602 0 9.574 1.875 18.861 5.572 27.602a70.91 70.91 0 0 0 6.538 12.046 71.418 71.418 0 0 0 8.66 10.495 71.444 71.444 0 0 0 10.496 8.66 70.915 70.915 0 0 0 12.045 6.538C73.32 231.125 82.607 233 92.18 233h137.524c1.923 0 3.867-.078 5.777-.232l.072-.006.072.005c2.42.155 4.881.233 7.315.233Zm0 1c-2.48 0-4.941-.079-7.379-.235-1.93.155-3.886.235-5.857.235H92.181c-39.716 0-71.913-32.197-71.913-71.913 0-39.716 32.197-71.912 71.913-71.912h51.275C160.081 53.595 198.366 28 242.941 28c59.827 0 108.327 46.115 108.327 103s-48.5 103-108.327 103Z" fill="#fff" fill-opacity=".5"/></g></g><defs><filter id="a" x="64.631" y="139.914" width="242.638" height="158.286" filterUnits="userSpaceOnUse" color-interpolation-filters="sRGB"><feFlood flood-opacity="0" result="BackgroundImageFix"/><feBlend in="SourceGraphic" in2="BackgroundImageFix" result="shape"/><feGaussianBlur stdDeviation="2" result="effect1_foregroundBlur_7_2004"/></filter><filter id="b" x="0" y="0" width="391.268" height="266" filterUnits="userSpaceOnUse" color-interpolation-filters="sRGB"><feFlood flood-opacity="0" result="BackgroundImageFix"/><feColorMatrix in="SourceAlpha" values="0 0 0 0 0 0 0 0 0 0 0 0 0 0 0 0 0 0 127 0" result="hardAlpha"/><feOffset dx="10" dy="2"/><feGaussianBlur stdDeviation="15"/><feColorMatrix values="0 0 0 0 0.258824 0 0 0 0 0.627451 0 0 0 0 0.941176 0 0 0 0.596 0"/><feBlend in2="BackgroundImageFix" result="effect1_dropShadow_7_2004"/><feBlend in="SourceGraphic" in2="effect1_dropShadow_7_2004" result="shape"/><feGaussianBlur stdDeviation="2" result="effect2_foregroundBlur_7_2004"/></filter><filter id="c" x="0" y="0" width="391.268" height="266" filterUnits="userSpaceOnUse" color-interpolation-filters="sRGB"><feFlood flood-opacity="0" result="BackgroundImageFix"/><feColorMatrix in="SourceAlpha" values="0 0 0 0 0 0 0 0 0 0 0 0 0 0 0 0 0 0 127 0" result="hardAlpha"/><feOffset dx="10" dy="2"/><feGaussianBlur stdDeviation="15"/><feColorMatrix values="0 0 0 0 0.501961 0 0 0 0 0.501961 0 0 0 0 0.501961 0 0 0 0.302 0"/><feBlend in2="BackgroundImageFix" result="effect1_dropShadow_7_2004"/><feBlend in="SourceGraphic" in2="effect1_dropShadow_7_2004" result="shape"/></filter><linearGradient id="d" x1="154.164" y1="53.956" x2="220.206" y2="245.168" gradientUnits="userSpaceOnUse"><stop stop-color="#fff" stop-opacity=".596"/><stop offset="1" stop-color="#F7F7F7" stop-opacity=".204"/></linearGradient></defs></svg>