<svg width="41" height="41" fill="none" xmlns="http://www.w3.org/2000/svg"><path fill-rule="evenodd" clip-rule="evenodd" d="M20.586 12.025a8.282 8.282 0 1 0 8.278 8.278 8.29 8.29 0 0 0-8.278-8.278Zm0 14.194a5.916 5.916 0 1 1 5.912-5.916 5.915 5.915 0 0 1-5.912 5.937v-.02ZM20.586 4.92a1.18 1.18 0 0 0-1.18 1.185V8.47a1.185 1.185 0 0 0 2.365 0V6.113a1.184 1.184 0 0 0-1.185-1.193ZM20.586 30.947a1.18 1.18 0 0 0-1.18 1.185v2.365a1.185 1.185 0 0 0 2.365 0v-2.365a1.185 1.185 0 0 0-1.185-1.185ZM31.455 9.43a1.185 1.185 0 0 0-1.668 0l-1.673 1.673a1.183 1.183 0 0 0 1.672 1.673l1.67-1.673a1.18 1.18 0 0 0 0-1.673ZM13.063 27.83a1.185 1.185 0 0 0-1.673 0l-1.673 1.69a1.18 1.18 0 0 0 1.673 1.64l1.673-1.64a1.19 1.19 0 0 0 0-1.69ZM5.211 20.303a1.185 1.185 0 0 0 1.185 1.185h2.366a1.184 1.184 0 0 0 0-2.366H6.396a1.181 1.181 0 0 0-1.185 1.181ZM31.23 20.303a1.185 1.185 0 0 0 1.185 1.185h2.365a1.185 1.185 0 0 0 0-2.366h-2.365a1.185 1.185 0 0 0-1.185 1.181ZM9.713 9.43a1.189 1.189 0 0 0 0 1.673l1.673 1.668a1.183 1.183 0 0 0 1.927-.38 1.18 1.18 0 0 0-.255-1.288L11.386 9.43a1.18 1.18 0 0 0-1.673 0ZM28.114 27.83a1.185 1.185 0 0 0 0 1.674l1.672 1.656a1.18 1.18 0 0 0 1.673-1.64l-1.672-1.673a1.182 1.182 0 0 0-1.673-.016Z" fill="#ED6C3A"/></svg>