<svg width="44" height="64" viewBox="0 0 44 64" fill="none" xmlns="http://www.w3.org/2000/svg">
<path d="M0.451243 26.433C1.28726 30.4969 3.25542 34.2415 6.12856 37.2347C9.0017 40.228 12.6627 42.3477 16.689 43.3493C20.7153 44.3509 24.9427 44.1936 28.8834 42.8954C32.8241 41.5973 36.3174 39.2112 38.9601 36.0127C41.6027 32.8142 43.2871 28.9336 43.8187 24.8188C44.3503 20.7039 43.7074 16.5227 41.9644 12.7576C40.2214 8.99246 37.4492 5.79698 33.9678 3.53997C30.4864 1.28295 26.4377 0.0564084 22.289 0.00189876L22.2448 3.36832C25.7586 3.41448 29.1877 4.45333 32.1363 6.36495C35.0849 8.27657 37.4329 10.983 38.9092 14.172C40.3855 17.3609 40.93 20.9023 40.4797 24.3874C40.0295 27.8725 38.6029 31.1593 36.3646 33.8683C34.1264 36.5774 31.1677 38.5982 27.83 39.6977C24.4924 40.7972 20.9119 40.9305 17.5017 40.0822C14.0916 39.2338 10.9909 37.4385 8.5574 34.9033C6.12394 32.3682 4.45698 29.1966 3.7489 25.7546L0.451243 26.433Z" fill="#3B5999"/>
<path d="M4.68995 51.908V54.464H8.74595V55.784H4.68995V59H3.12995V50.6H9.26195V51.908H4.68995ZM10.5094 52.592H12.0094V59H10.5094V52.592ZM11.2654 51.536C10.9934 51.536 10.7654 51.452 10.5814 51.284C10.3974 51.108 10.3054 50.892 10.3054 50.636C10.3054 50.38 10.3974 50.168 10.5814 50C10.7654 49.824 10.9934 49.736 11.2654 49.736C11.5374 49.736 11.7654 49.82 11.9494 49.988C12.1334 50.148 12.2254 50.352 12.2254 50.6C12.2254 50.864 12.1334 51.088 11.9494 51.272C11.7734 51.448 11.5454 51.536 11.2654 51.536ZM20.3381 52.592V58.028C20.3381 60.284 19.1861 61.412 16.8821 61.412C16.2661 61.412 15.6821 61.332 15.1301 61.172C14.5781 61.02 14.1221 60.796 13.7621 60.5L14.4341 59.372C14.7141 59.604 15.0661 59.788 15.4901 59.924C15.9221 60.068 16.3581 60.14 16.7981 60.14C17.5021 60.14 18.0181 59.98 18.3461 59.66C18.6741 59.34 18.8381 58.852 18.8381 58.196V57.86C18.5821 58.14 18.2701 58.352 17.9021 58.496C17.5341 58.64 17.1301 58.712 16.6901 58.712C16.0821 58.712 15.5301 58.584 15.0341 58.328C14.5461 58.064 14.1581 57.696 13.8701 57.224C13.5901 56.752 13.4501 56.212 13.4501 55.604C13.4501 54.996 13.5901 54.46 13.8701 53.996C14.1581 53.524 14.5461 53.16 15.0341 52.904C15.5301 52.648 16.0821 52.52 16.6901 52.52C17.1541 52.52 17.5741 52.596 17.9501 52.748C18.3341 52.9 18.6541 53.132 18.9101 53.444V52.592H20.3381ZM16.9181 57.44C17.4861 57.44 17.9501 57.272 18.3101 56.936C18.6781 56.592 18.8621 56.148 18.8621 55.604C18.8621 55.068 18.6781 54.632 18.3101 54.296C17.9501 53.96 17.4861 53.792 16.9181 53.792C16.3421 53.792 15.8701 53.96 15.5021 54.296C15.1421 54.632 14.9621 55.068 14.9621 55.604C14.9621 56.148 15.1421 56.592 15.5021 56.936C15.8701 57.272 16.3421 57.44 16.9181 57.44ZM30.3982 52.52C31.2062 52.52 31.8462 52.756 32.3182 53.228C32.7902 53.692 33.0262 54.392 33.0262 55.328V59H31.5262V55.52C31.5262 54.96 31.4022 54.54 31.1542 54.26C30.9062 53.972 30.5502 53.828 30.0862 53.828C29.5822 53.828 29.1782 53.996 28.8742 54.332C28.5702 54.66 28.4182 55.132 28.4182 55.748V59H26.9182V55.52C26.9182 54.96 26.7942 54.54 26.5462 54.26C26.2982 53.972 25.9422 53.828 25.4782 53.828C24.9662 53.828 24.5582 53.992 24.2542 54.32C23.9582 54.648 23.8102 55.124 23.8102 55.748V59H22.3102V52.592H23.7382V53.408C23.9782 53.12 24.2782 52.9 24.6382 52.748C24.9982 52.596 25.3982 52.52 25.8382 52.52C26.3182 52.52 26.7422 52.612 27.1102 52.796C27.4862 52.972 27.7822 53.236 27.9982 53.588C28.2622 53.252 28.6022 52.992 29.0182 52.808C29.4342 52.616 29.8942 52.52 30.3982 52.52ZM37.391 52.52C38.335 52.52 39.055 52.748 39.551 53.204C40.055 53.652 40.307 54.332 40.307 55.244V59H38.891V58.22C38.707 58.5 38.443 58.716 38.099 58.868C37.763 59.012 37.355 59.084 36.875 59.084C36.395 59.084 35.975 59.004 35.615 58.844C35.255 58.676 34.975 58.448 34.775 58.16C34.583 57.864 34.487 57.532 34.487 57.164C34.487 56.588 34.699 56.128 35.123 55.784C35.555 55.432 36.231 55.256 37.151 55.256H38.807V55.16C38.807 54.712 38.671 54.368 38.399 54.128C38.135 53.888 37.739 53.768 37.211 53.768C36.851 53.768 36.495 53.824 36.143 53.936C35.799 54.048 35.507 54.204 35.267 54.404L34.679 53.312C35.015 53.056 35.419 52.86 35.891 52.724C36.363 52.588 36.863 52.52 37.391 52.52ZM37.187 57.992C37.563 57.992 37.895 57.908 38.183 57.74C38.479 57.564 38.687 57.316 38.807 56.996V56.252H37.259C36.395 56.252 35.963 56.536 35.963 57.104C35.963 57.376 36.071 57.592 36.287 57.752C36.503 57.912 36.803 57.992 37.187 57.992Z" fill="#545454"/>
<g clip-path="url(#clip0_463_127)">
<path d="M17.7982 34.7849C19.894 34.7849 21.5949 33.0836 21.5949 30.9874V27.1899H17.7982C15.7024 27.1899 14.0015 28.8912 14.0015 30.9874C14.0015 33.0836 15.7024 34.7849 17.7982 34.7849Z" fill="#0ACF83"/>
<path d="M14.0015 23.3924C14.0015 21.2962 15.7024 19.595 17.7982 19.595H21.5949V27.1899H17.7982C15.7024 27.1899 14.0015 25.4886 14.0015 23.3924Z" fill="#A259FF"/>
<path d="M14.0088 15.7975C14.0088 13.7013 15.7097 12 17.8055 12H21.6022V19.5949H17.8055C15.7097 19.5949 14.0088 17.8937 14.0088 15.7975Z" fill="#F24E1E"/>
<path d="M21.595 12H25.3917C27.4875 12 29.1884 13.7013 29.1884 15.7975C29.1884 17.8937 27.4875 19.5949 25.3917 19.5949H21.595V12Z" fill="#FF7262"/>
<path d="M29.1884 23.3924C29.1884 25.4886 27.4875 27.1899 25.3917 27.1899C23.2959 27.1899 21.595 25.4886 21.595 23.3924C21.595 21.2962 23.2959 19.595 25.3917 19.595C27.4875 19.595 29.1884 21.2962 29.1884 23.3924Z" fill="#1ABCFE"/>
</g>
<defs>
<clipPath id="clip0_463_127">
<rect width="15.1899" height="22.7848" fill="white" transform="translate(14 12)"/>
</clipPath>
</defs>
</svg>
