<svg width="40" height="40" viewBox="0 0 40 40" fill="none" xmlns="http://www.w3.org/2000/svg">
<path d="M28.956 28C27.683 29.2936 26.134 30.2828 24.4249 30.8935C22.7158 31.5043 20.8907 31.7209 19.0861 31.5272C17.2815 31.3335 15.544 30.7344 14.0035 29.7747C12.463 28.8151 11.1593 27.5196 10.1899 25.9853C9.2204 24.4509 8.61025 22.7173 8.40501 20.914C8.19977 19.1106 8.40475 17.2842 9.00463 15.5713C9.60451 13.8583 10.5838 12.3031 11.8692 11.0218C13.1547 9.74049 14.7131 8.7663 16.428 8.172C16.6961 8.07831 16.9853 8.06224 17.2621 8.12564C17.539 8.18904 17.7923 8.32934 17.9929 8.53038C18.1935 8.73142 18.3333 8.98502 18.3961 9.262C18.4589 9.53898 18.4423 9.82807 18.348 10.096C17.7654 11.7002 17.6523 13.4373 18.0219 15.1035C18.3914 16.7698 19.2284 18.2961 20.4346 19.5036C21.6408 20.7111 23.1663 21.5496 24.8321 21.9209C26.498 22.2922 28.2352 22.1809 29.84 21.6C30.1077 21.5068 30.3963 21.4909 30.6726 21.5542C30.9489 21.6175 31.2018 21.7574 31.4022 21.9578C31.6026 22.1583 31.7425 22.4111 31.8058 22.6874C31.8691 22.9637 31.8532 23.2523 31.76 23.52C31.174 25.2051 30.2155 26.7364 28.956 28V28ZM14.612 12.548C11.092 16.068 10.532 22.36 14.056 25.88C17.816 29.644 24.788 29.304 28.056 25.112C24.672 25.324 20.78 24.104 18.3 21.624C15.82 19.144 15.156 15.252 15.368 11.868C15.1041 12.081 14.8517 12.308 14.612 12.548V12.548Z" fill="#EAB359"/>
</svg>
