<svg width="44" height="64" viewBox="0 0 44 64" fill="none" xmlns="http://www.w3.org/2000/svg">
<circle cx="23" cy="23" r="21" fill="#C4C4C4" fill-opacity="0.4"/>
<path d="M0.451243 26.433C1.28726 30.4969 3.25542 34.2415 6.12856 37.2347C9.0017 40.228 12.6627 42.3477 16.689 43.3493C20.7153 44.3509 24.9427 44.1936 28.8834 42.8954C32.8241 41.5973 36.3174 39.2112 38.9601 36.0127C41.6027 32.8142 43.2871 28.9336 43.8187 24.8188C44.3503 20.7039 43.7074 16.5227 41.9644 12.7576C40.2214 8.99246 37.4492 5.79698 33.9678 3.53997C30.4864 1.28295 26.4377 0.0564084 22.289 0.00189876L22.2448 3.36832C25.7586 3.41448 29.1877 4.45333 32.1363 6.36495C35.0849 8.27657 37.4329 10.983 38.9092 14.172C40.3855 17.3609 40.93 20.9023 40.4797 24.3874C40.0295 27.8725 38.6029 31.1593 36.3646 33.8683C34.1264 36.5774 31.1677 38.5982 27.83 39.6977C24.4924 40.7972 20.9119 40.9305 17.5017 40.0822C14.0916 39.2338 10.9909 37.4385 8.5574 34.9033C6.12394 32.3682 4.45698 29.1966 3.7489 25.7546L0.451243 26.433Z" fill="#3B5999"/>
<path d="M10.4717 59L8.75566 56.54C8.68366 56.548 8.57566 56.552 8.43166 56.552H6.53566V59H4.97566V50.6H8.43166C9.15966 50.6 9.79166 50.72 10.3277 50.96C10.8717 51.2 11.2877 51.544 11.5757 51.992C11.8637 52.44 12.0077 52.972 12.0077 53.588C12.0077 54.22 11.8517 54.764 11.5397 55.22C11.2357 55.676 10.7957 56.016 10.2197 56.24L12.1517 59H10.4717ZM10.4357 53.588C10.4357 53.052 10.2597 52.64 9.90766 52.352C9.55566 52.064 9.03966 51.92 8.35966 51.92H6.53566V55.268H8.35966C9.03966 55.268 9.55566 55.124 9.90766 54.836C10.2597 54.54 10.4357 54.124 10.4357 53.588ZM19.633 55.832C19.633 55.936 19.625 56.084 19.609 56.276H14.581C14.669 56.748 14.897 57.124 15.265 57.404C15.641 57.676 16.105 57.812 16.657 57.812C17.361 57.812 17.941 57.58 18.397 57.116L19.201 58.04C18.913 58.384 18.549 58.644 18.109 58.82C17.669 58.996 17.173 59.084 16.621 59.084C15.917 59.084 15.297 58.944 14.761 58.664C14.225 58.384 13.809 57.996 13.513 57.5C13.225 56.996 13.081 56.428 13.081 55.796C13.081 55.172 13.221 54.612 13.501 54.116C13.789 53.612 14.185 53.22 14.689 52.94C15.193 52.66 15.761 52.52 16.393 52.52C17.017 52.52 17.573 52.66 18.061 52.94C18.557 53.212 18.941 53.6 19.213 54.104C19.493 54.6 19.633 55.176 19.633 55.832ZM16.393 53.72C15.913 53.72 15.505 53.864 15.169 54.152C14.841 54.432 14.641 54.808 14.569 55.28H18.205C18.141 54.816 17.945 54.44 17.617 54.152C17.289 53.864 16.881 53.72 16.393 53.72ZM23.3461 52.52C24.2901 52.52 25.0101 52.748 25.5061 53.204C26.0101 53.652 26.2621 54.332 26.2621 55.244V59H24.8461V58.22C24.6621 58.5 24.3981 58.716 24.0541 58.868C23.7181 59.012 23.3101 59.084 22.8301 59.084C22.3501 59.084 21.9301 59.004 21.5701 58.844C21.2101 58.676 20.9301 58.448 20.7301 58.16C20.5381 57.864 20.4421 57.532 20.4421 57.164C20.4421 56.588 20.6541 56.128 21.0781 55.784C21.5101 55.432 22.1861 55.256 23.1061 55.256H24.7621V55.16C24.7621 54.712 24.6261 54.368 24.3541 54.128C24.0901 53.888 23.6941 53.768 23.1661 53.768C22.8061 53.768 22.4501 53.824 22.0981 53.936C21.7541 54.048 21.4621 54.204 21.2221 54.404L20.6341 53.312C20.9701 53.056 21.3741 52.86 21.8461 52.724C22.3181 52.588 22.8181 52.52 23.3461 52.52ZM23.1421 57.992C23.5181 57.992 23.8501 57.908 24.1381 57.74C24.4341 57.564 24.6421 57.316 24.7621 56.996V56.252H23.2141C22.3501 56.252 21.9181 56.536 21.9181 57.104C21.9181 57.376 22.0261 57.592 22.2421 57.752C22.4581 57.912 22.7581 57.992 23.1421 57.992ZM31.1857 59.084C30.5217 59.084 29.9257 58.944 29.3977 58.664C28.8697 58.384 28.4577 57.996 28.1617 57.5C27.8657 56.996 27.7177 56.428 27.7177 55.796C27.7177 55.164 27.8657 54.6 28.1617 54.104C28.4577 53.608 28.8657 53.22 29.3857 52.94C29.9137 52.66 30.5137 52.52 31.1857 52.52C31.8177 52.52 32.3697 52.648 32.8417 52.904C33.3217 53.16 33.6817 53.528 33.9217 54.008L32.7697 54.68C32.5857 54.384 32.3537 54.164 32.0737 54.02C31.8017 53.868 31.5017 53.792 31.1737 53.792C30.6137 53.792 30.1497 53.976 29.7817 54.344C29.4137 54.704 29.2297 55.188 29.2297 55.796C29.2297 56.404 29.4097 56.892 29.7697 57.26C30.1377 57.62 30.6057 57.8 31.1737 57.8C31.5017 57.8 31.8017 57.728 32.0737 57.584C32.3537 57.432 32.5857 57.208 32.7697 56.912L33.9217 57.584C33.6737 58.064 33.3097 58.436 32.8297 58.7C32.3577 58.956 31.8097 59.084 31.1857 59.084ZM39.1524 58.652C38.9764 58.796 38.7604 58.904 38.5044 58.976C38.2564 59.048 37.9924 59.084 37.7124 59.084C37.0084 59.084 36.4644 58.9 36.0804 58.532C35.6964 58.164 35.5044 57.628 35.5044 56.924V53.84H34.4484V52.64H35.5044V51.176H37.0044V52.64H38.7204V53.84H37.0044V56.888C37.0044 57.2 37.0804 57.44 37.2324 57.608C37.3844 57.768 37.6044 57.848 37.8924 57.848C38.2284 57.848 38.5084 57.76 38.7324 57.584L39.1524 58.652Z" fill="#545454"/>
<path d="M35.3658 22.4963C35.3658 20.8093 33.2753 19.2105 30.0702 18.219C30.8098 14.9175 30.4811 12.2909 29.0326 11.4499C28.6987 11.2527 28.3084 11.1592 27.882 11.1592V12.3168C28.1183 12.3168 28.3084 12.3636 28.4676 12.4518C29.1662 12.8567 29.4692 14.3984 29.2329 16.3814C29.1764 16.8693 29.084 17.3832 28.971 17.9075C27.9642 17.6583 26.865 17.4663 25.7093 17.3417C25.0159 16.3814 24.2968 15.5093 23.5726 14.7462C25.2471 13.1733 26.8188 12.3116 27.8872 12.3116V11.1541C26.4747 11.1541 24.6256 12.1715 22.7559 13.9364C20.8862 12.1819 19.0371 11.1748 17.6246 11.1748V12.3324C18.6878 12.3324 20.2647 13.1889 21.9392 14.7514C21.2201 15.5145 20.501 16.3814 19.8179 17.3417C18.657 17.4663 17.5578 17.6583 16.5511 17.9127C16.4329 17.3936 16.3456 16.8901 16.284 16.4073C16.0426 14.4244 16.3405 12.8826 17.0339 12.4726C17.188 12.3791 17.3883 12.3376 17.6246 12.3376V11.18C17.1931 11.18 16.8028 11.2734 16.4638 11.4707C15.0204 12.3116 14.6968 14.9331 15.4416 18.2242C12.2468 19.2208 10.1665 20.8145 10.1665 22.4963C10.1665 24.1834 12.257 25.7822 15.4622 26.7737C14.7225 30.0752 15.0512 32.7018 16.4997 33.5427C16.8336 33.74 17.224 33.8334 17.6554 33.8334C19.0679 33.8334 20.9171 32.816 22.7867 31.0511C24.6564 32.8056 26.5055 33.8127 27.918 33.8127C28.3495 33.8127 28.7398 33.7192 29.0788 33.522C30.5222 32.681 30.8458 30.0596 30.101 26.7685C33.2856 25.777 35.3658 24.1782 35.3658 22.4963ZM28.6782 19.034C28.4881 19.7036 28.2519 20.394 27.9848 21.0844C27.7742 20.6691 27.5533 20.2538 27.3119 19.8386C27.0756 19.4233 26.8239 19.0184 26.5723 18.6239C27.3016 18.7329 28.0053 18.8678 28.6782 19.034ZM26.3257 24.5624C25.9251 25.2631 25.5142 25.9276 25.0878 26.5453C24.3225 26.6128 23.5469 26.6491 22.7662 26.6491C21.9906 26.6491 21.215 26.6128 20.4548 26.5505C20.0284 25.9328 19.6124 25.2735 19.2118 24.5779C18.8214 23.8979 18.467 23.2075 18.1434 22.5119C18.4618 21.8163 18.8214 21.1207 19.2066 20.4407C19.6073 19.7399 20.0182 19.0755 20.4445 18.4578C21.2098 18.3903 21.9854 18.3539 22.7662 18.3539C23.5418 18.3539 24.3174 18.3903 25.0776 18.4526C25.5039 19.0703 25.9199 19.7296 26.3206 20.4251C26.7109 21.1052 27.0654 21.7956 27.389 22.4912C27.0654 23.1867 26.7109 23.8823 26.3257 24.5624ZM27.9848 23.8875C28.2621 24.5831 28.4984 25.2787 28.6936 25.9535C28.0207 26.1196 27.3119 26.2598 26.5774 26.3688C26.8291 25.9691 27.0808 25.559 27.317 25.1385C27.5533 24.7233 27.7742 24.3028 27.9848 23.8875ZM22.7764 29.4263C22.2988 28.928 21.8211 28.3725 21.3485 27.7652C21.8108 27.7859 22.2833 27.8015 22.761 27.8015C23.2439 27.8015 23.7215 27.7911 24.189 27.7652C23.7267 28.3725 23.249 28.928 22.7764 29.4263ZM18.9549 26.3688C18.2256 26.2598 17.5219 26.1248 16.849 25.9587C17.039 25.2891 17.2753 24.5987 17.5424 23.9083C17.753 24.3236 17.9739 24.7388 18.2153 25.1541C18.4567 25.5694 18.7032 25.9743 18.9549 26.3688ZM22.7508 15.5664C23.2284 16.0647 23.7061 16.6202 24.1787 17.2275C23.7164 17.2067 23.2439 17.1912 22.7662 17.1912C22.2833 17.1912 21.8057 17.2015 21.3382 17.2275C21.8005 16.6202 22.2782 16.0647 22.7508 15.5664ZM18.9498 18.6239C18.6981 19.0236 18.4464 19.4337 18.2102 19.8541C17.9739 20.2694 17.753 20.6847 17.5424 21.1C17.265 20.4044 17.0288 19.7088 16.8336 19.034C17.5065 18.873 18.2153 18.7329 18.9498 18.6239ZM14.3013 25.123C12.483 24.3391 11.3068 23.3113 11.3068 22.4963C11.3068 21.6814 12.483 20.6484 14.3013 19.8697C14.7431 19.6776 15.2259 19.5063 15.7241 19.3454C16.0169 20.3628 16.4021 21.4218 16.8798 22.5067C16.4073 23.5864 16.0272 24.6402 15.7395 25.6525C15.231 25.4915 14.7482 25.315 14.3013 25.123ZM17.0647 32.5409C16.3662 32.136 16.0631 30.5943 16.2994 28.6113C16.3559 28.1234 16.4484 27.6095 16.5614 27.0852C17.5681 27.3343 18.6673 27.5264 19.823 27.651C20.5164 28.6113 21.2355 29.4834 21.9597 30.2465C20.2853 31.8193 18.7135 32.681 17.6451 32.681C17.414 32.6759 17.2188 32.6291 17.0647 32.5409ZM29.2483 28.5854C29.4898 30.5683 29.1918 32.11 28.4984 32.5201C28.3443 32.6136 28.144 32.6551 27.9077 32.6551C26.8445 32.6551 25.2676 31.7986 23.5931 30.2361C24.3122 29.473 25.0313 28.6061 25.7145 27.6458C26.8753 27.5212 27.9745 27.3291 28.9812 27.0748C29.0994 27.5991 29.1918 28.1026 29.2483 28.5854ZM31.2259 25.123C30.7841 25.315 30.3013 25.4863 29.8031 25.6473C29.5103 24.6298 29.1251 23.5709 28.6474 22.486C29.1199 21.4062 29.5 20.3525 29.7877 19.3402C30.2962 19.5011 30.779 19.6776 31.231 19.8697C33.0493 20.6535 34.2255 21.6814 34.2255 22.4963C34.2204 23.3113 33.0442 24.3443 31.2259 25.123Z" fill="#61DAFB"/>
<path d="M22.7614 24.8686C24.0578 24.8686 25.1088 23.8065 25.1088 22.4963C25.1088 21.1861 24.0578 20.124 22.7614 20.124C21.465 20.124 20.4141 21.1861 20.4141 22.4963C20.4141 23.8065 21.465 24.8686 22.7614 24.8686Z" fill="#61DAFB"/>
</svg>
