<svg width="34" height="35" fill="none" xmlns="http://www.w3.org/2000/svg"><g filter="url(#a)" fill-rule="evenodd" clip-rule="evenodd" fill="#fff"><path d="M28.638 20.613a.516.516 0 0 1-.408.604l-2.325.449.557 2.078a.516.516 0 0 1-.996.267l-.7-2.613a.516.516 0 0 1 .4-.64l2.868-.553c.28-.054.55.129.604.408ZM8.048 10.903a.516.516 0 0 1-.301.61l-2.231.921a.516.516 0 1 1-.394-.953l1.813-.748-.53-1.975a.516.516 0 1 1 .997-.267l.646 2.412ZM26.345 8.12c.268.094.41.388.316.657l-.782 2.234 2.076.565a.516.516 0 0 1-.27.995l-2.611-.71a.516.516 0 0 1-.352-.668l.966-2.757a.516.516 0 0 1 .657-.316ZM7.592 21.027c.25.068.411.31.376.567l-.327 2.391a.516.516 0 0 1-1.022-.14l.266-1.942-1.973-.536a.516.516 0 0 1 .27-.995l2.41.655ZM14.3 3.832a.516.516 0 0 1 .728.052l1.55 1.789L18.1 4.15a.516.516 0 1 1 .729.73l-1.913 1.912a.516.516 0 0 1-.754-.026l-1.913-2.208a.516.516 0 0 1 .052-.727ZM16.187 26.518a.516.516 0 0 1 .679-.044l1.913 1.472a.516.516 0 0 1-.629.817l-1.554-1.195-1.446 1.445a.516.516 0 1 1-.73-.729l1.767-1.766Z"/><path d="M29.045 23.447a.687.687 0 0 1-.939.252L4.53 10.087a.688.688 0 0 1 .687-1.19l23.577 13.611c.328.19.441.61.251.94Z"/><path d="M27.861 18.256a.688.688 0 0 1-.426.874l-3.716 1.279.462 3.831a.688.688 0 0 1-1.366.165l-.528-4.383a.688.688 0 0 1 .46-.733l4.24-1.46a.688.688 0 0 1 .874.427ZM11.034 12.56a.688.688 0 0 1-.415.73l-3.584 1.499a.688.688 0 0 1-.53-1.269l3.094-1.294-.528-3.73a.687.687 0 1 1 1.362-.192l.601 4.255ZM28.998 9.194c.19.33.075.75-.255.938L5.117 23.656a.687.687 0 1 1-.683-1.193L28.06 8.939a.688.688 0 0 1 .939.255Z"/><path d="M23.917 7.605a.687.687 0 0 1 .54.808l-.764 3.855 3.543 1.529a.688.688 0 0 1-.545 1.262l-4.053-1.749a.687.687 0 0 1-.402-.765l.873-4.4a.688.688 0 0 1 .808-.54ZM10.526 19.28c.29.117.463.416.422.726l-.508 3.852a.687.687 0 1 1-1.363-.18l.439-3.326-3.489-1.42a.687.687 0 1 1 .52-1.274l3.98 1.621ZM16.551 2.063c.38 0 .688.307.688.687v27.223a.687.687 0 1 1-1.375 0V2.75c0-.38.308-.688.687-.688Z"/><path d="M12.648 5.683a.687.687 0 0 1 .97-.067l2.965 2.578L19.67 5.88a.687.687 0 1 1 .825 1.1l-3.531 2.649a.688.688 0 0 1-.864-.032l-3.384-2.943a.687.687 0 0 1-.068-.97ZM16.128 23.104a.688.688 0 0 1 .84-.005l3.09 2.354a.687.687 0 1 1-.833 1.094l-2.668-2.033-2.966 2.322a.687.687 0 0 1-.848-1.083l3.385-2.649Z"/><path d="M12.51 9.524a.687.687 0 0 1 .618-.055l3.457 1.383 3.744-1.11a.687.687 0 0 1 .873.542l.55 3.16 2.482 2.344a.687.687 0 0 1-.014 1.012l-2.638 2.361-.98 3.916a.687.687 0 0 1-.94.463l-3.148-1.368-3.432 1.098a.687.687 0 0 1-.895-.602l-.268-3.48-3.237-2.023a.688.688 0 0 1-.048-1.133l3.283-2.462.27-3.515a.687.687 0 0 1 .322-.531Zm.976 1.57-.222 2.892a.687.687 0 0 1-.273.498l-2.73 2.047 2.682 1.676a.687.687 0 0 1 .32.53l.228 2.959 2.85-.912a.687.687 0 0 1 .484.024l2.64 1.148.834-3.333a.688.688 0 0 1 .208-.346l2.239-2.003-2.105-1.988a.687.687 0 0 1-.205-.382l-.457-2.623-3.232.957a.687.687 0 0 1-.451-.02l-2.81-1.124Z"/><path d="M16.54 11.064a.516.516 0 0 1 .467.274l1.163 2.197 2.747-.262a.515.515 0 0 1 .5.764l-1.32 2.374 1.298 1.945a.516.516 0 0 1-.43.802h-2.763l-1.185 2.501a.516.516 0 0 1-.932-.001l-1.055-2.24-2.361-.263a.515.515 0 0 1-.373-.799l1.281-1.92-1.575-2.364a.516.516 0 0 1 .48-.799l2.58.258 1.023-2.171a.516.516 0 0 1 .454-.296Zm.038 1.668-.737 1.568a.516.516 0 0 1-.518.294l-1.858-.186 1.16 1.741a.515.515 0 0 1 0 .572l-1 1.503 1.806.2c.178.02.333.131.41.293l.712 1.514.857-1.81a.516.516 0 0 1 .466-.294h2.127l-.938-1.406a.515.515 0 0 1-.021-.536l.995-1.792-2.114.201a.516.516 0 0 1-.505-.272l-.842-1.59Z"/></g><defs><filter id="a" x="0" y="0" width="37" height="37" filterUnits="userSpaceOnUse" color-interpolation-filters="sRGB"><feFlood flood-opacity="0" result="BackgroundImageFix"/><feColorMatrix in="SourceAlpha" values="0 0 0 0 0 0 0 0 0 0 0 0 0 0 0 0 0 0 127 0" result="hardAlpha"/><feOffset dx="4" dy="4"/><feColorMatrix values="0 0 0 0 0 0 0 0 0 0 0 0 0 0 0 0 0 0 0.2 0"/><feBlend in2="BackgroundImageFix" result="effect1_dropShadow_503_2175"/><feBlend in="SourceGraphic" in2="effect1_dropShadow_503_2175" result="shape"/></filter></defs></svg>