<svg width="41" height="41" viewBox="0 0 41 41" fill="none" xmlns="http://www.w3.org/2000/svg">
<path fill-rule="evenodd" clip-rule="evenodd" d="M20.5861 12.0253C18.9477 12.0245 17.3459 12.5096 15.9833 13.4193C14.6207 14.3291 13.5586 15.6225 12.9312 17.136C12.3039 18.6495 12.1395 20.3151 12.4589 21.922C12.7784 23.5289 13.5672 25.005 14.7257 26.1635C15.8842 27.322 17.3603 28.1109 18.9673 28.4303C20.5742 28.7498 22.2398 28.5854 23.7533 27.9581C25.2668 27.3307 26.5602 26.2685 27.4699 24.9059C28.3797 23.5433 28.8648 21.9415 28.864 20.3032C28.8607 18.1087 27.9876 16.0051 26.4359 14.4534C24.8842 12.9017 22.7805 12.0285 20.5861 12.0253V12.0253ZM20.5861 26.2195C19.4158 26.2203 18.2715 25.874 17.2981 25.2244C16.3246 24.5748 15.5656 23.6511 15.1172 22.5701C14.6688 21.4891 14.5511 20.2994 14.7789 19.1515C15.0067 18.0036 15.5698 16.949 16.3971 16.1212C17.2243 15.2933 18.2785 14.7295 19.4263 14.5009C20.574 14.2722 21.7638 14.3892 22.8451 14.8368C23.9264 15.2845 24.8507 16.0428 25.5009 17.0158C26.1512 17.9888 26.4983 19.1329 26.4983 20.3032C26.501 21.0815 26.3501 21.8527 26.0542 22.5726C25.7584 23.2925 25.3234 23.9469 24.7742 24.4984C24.225 25.0499 23.5723 25.4876 22.8537 25.7865C22.135 26.0853 21.3644 26.2394 20.5861 26.24V26.2195Z" fill="#ED6C3A"/>
<path fill-rule="evenodd" clip-rule="evenodd" d="M20.5861 4.91998C20.4307 4.91998 20.2768 4.95066 20.1333 5.01026C19.9898 5.06985 19.8594 5.1572 19.7497 5.26728C19.64 5.37736 19.5531 5.50802 19.494 5.65175C19.4349 5.79549 19.4048 5.94947 19.4053 6.10488V8.47058C19.4231 8.77225 19.5555 9.05574 19.7753 9.26304C19.9952 9.47035 20.286 9.58581 20.5882 9.58581C20.8904 9.58581 21.1812 9.47035 21.401 9.26304C21.6209 9.05574 21.7533 8.77225 21.771 8.47058V6.11308C21.7721 5.95679 21.7423 5.80183 21.6832 5.65712C21.6242 5.51242 21.537 5.38082 21.4269 5.26993C21.3168 5.15903 21.1858 5.07101 21.0415 5.01096C20.8972 4.9509 20.7424 4.91998 20.5861 4.91998V4.91998Z" fill="#ED6C3A"/>
<path fill-rule="evenodd" clip-rule="evenodd" d="M20.5861 30.9468C20.4307 30.9468 20.2768 30.9775 20.1333 31.0371C19.9898 31.0967 19.8594 31.1841 19.7497 31.2941C19.64 31.4042 19.5531 31.5349 19.494 31.6786C19.4349 31.8223 19.4048 31.9763 19.4053 32.1317V34.4974C19.4231 34.7991 19.5555 35.0826 19.7753 35.2899C19.9952 35.4972 20.286 35.6127 20.5882 35.6127C20.8904 35.6127 21.1812 35.4972 21.401 35.2899C21.6209 35.0826 21.7533 34.7991 21.771 34.4974V32.1317C21.771 31.8175 21.6462 31.5161 21.424 31.2939C21.2018 31.0717 20.9004 30.9468 20.5861 30.9468V30.9468Z" fill="#ED6C3A"/>
<path fill-rule="evenodd" clip-rule="evenodd" d="M31.4552 9.42999C31.2333 9.20991 30.9334 9.08643 30.6209 9.08643C30.3083 9.08643 30.0084 9.20991 29.7865 9.42999L28.1137 11.1028C27.8919 11.3246 27.7673 11.6255 27.7673 11.9392C27.7673 12.2529 27.8919 12.5538 28.1137 12.7756C28.3355 12.9974 28.6364 13.122 28.9501 13.122C29.2638 13.122 29.5647 12.9974 29.7865 12.7756L31.4552 11.1028C31.5653 10.9931 31.6526 10.8627 31.7122 10.7192C31.7718 10.5757 31.8025 10.4218 31.8025 10.2664C31.8025 10.111 31.7718 9.9571 31.7122 9.81357C31.6526 9.67004 31.5653 9.53969 31.4552 9.42999V9.42999Z" fill="#ED6C3A"/>
<path fill-rule="evenodd" clip-rule="evenodd" d="M13.0626 27.8308C12.8405 27.6095 12.5397 27.4852 12.2262 27.4852C11.9126 27.4852 11.6119 27.6095 11.3898 27.8308L9.71698 29.52C9.54343 29.749 9.4593 30.0333 9.48035 30.3199C9.5014 30.6064 9.62618 30.8754 9.83133 31.0765C10.0365 31.2776 10.3079 31.3971 10.5948 31.4125C10.8817 31.4278 11.1643 31.3381 11.3898 31.16L13.0626 29.52C13.1741 29.4095 13.2627 29.2779 13.3231 29.133C13.3836 28.988 13.4147 28.8325 13.4147 28.6754C13.4147 28.5184 13.3836 28.3629 13.3231 28.2179C13.2627 28.0729 13.1741 27.9414 13.0626 27.8308V27.8308Z" fill="#ED6C3A"/>
<path fill-rule="evenodd" clip-rule="evenodd" d="M5.21106 20.3032C5.21106 20.6175 5.3359 20.9189 5.55811 21.1411C5.78032 21.3633 6.0817 21.4881 6.39596 21.4881H8.76166C9.06333 21.4704 9.34681 21.338 9.55412 21.1181C9.76143 20.8983 9.87689 20.6075 9.87689 20.3053C9.87689 20.0031 9.76143 19.7123 9.55412 19.4924C9.34681 19.2726 9.06333 19.1402 8.76166 19.1224H6.39596C6.24055 19.1219 6.08656 19.152 5.94283 19.2111C5.79909 19.2702 5.66844 19.3571 5.55836 19.4668C5.44827 19.5765 5.36093 19.7069 5.30133 19.8504C5.24174 19.994 5.21106 20.1478 5.21106 20.3032Z" fill="#ED6C3A"/>
<path fill-rule="evenodd" clip-rule="evenodd" d="M31.2297 20.3032C31.2297 20.6174 31.3546 20.9188 31.5768 21.141C31.799 21.3632 32.1004 21.4881 32.4146 21.4881H34.7803C35.082 21.4703 35.3655 21.338 35.5728 21.1181C35.7801 20.8982 35.8956 20.6074 35.8956 20.3052C35.8956 20.003 35.7801 19.7123 35.5728 19.4924C35.3655 19.2725 35.082 19.1401 34.7803 19.1224H32.4146C32.1011 19.1224 31.8003 19.2466 31.5782 19.468C31.3561 19.6893 31.2308 19.9896 31.2297 20.3032V20.3032Z" fill="#ED6C3A"/>
<path fill-rule="evenodd" clip-rule="evenodd" d="M9.71294 9.43C9.49261 9.65262 9.36902 9.95319 9.36902 10.2664C9.36902 10.5796 9.49261 10.8802 9.71294 11.1028L11.3857 12.7715C11.4953 12.8813 11.6254 12.9685 11.7687 13.0281C11.912 13.0876 12.0655 13.1184 12.2207 13.1186C12.3758 13.1187 12.5295 13.0884 12.6729 13.0292C12.8163 12.97 12.9467 12.8831 13.0565 12.7736C13.1663 12.664 13.2535 12.5339 13.3131 12.3906C13.3726 12.2473 13.4034 12.0937 13.4035 11.9386C13.4037 11.7835 13.3734 11.6298 13.3142 11.4864C13.255 11.343 13.1681 11.2126 13.0585 11.1028L11.3857 9.43C11.276 9.31992 11.1457 9.23258 11.0022 9.17298C10.8586 9.11338 10.7048 9.0827 10.5493 9.0827C10.3939 9.0827 10.2401 9.11338 10.0965 9.17298C9.95299 9.23258 9.82264 9.31992 9.71294 9.43V9.43Z" fill="#ED6C3A"/>
<path fill-rule="evenodd" clip-rule="evenodd" d="M28.1137 27.8308C27.8924 28.0529 27.7681 28.3537 27.7681 28.6672C27.7681 28.9808 27.8924 29.2815 28.1137 29.5036L29.7865 31.16C30.012 31.3381 30.2946 31.4278 30.5815 31.4124C30.8684 31.3971 31.1398 31.2776 31.345 31.0765C31.5501 30.8754 31.6749 30.6064 31.696 30.3198C31.717 30.0333 31.6329 29.749 31.4593 29.52L29.7865 27.8472C29.6779 27.7361 29.5484 27.6474 29.4055 27.5864C29.2625 27.5254 29.1089 27.4932 28.9535 27.4917C28.7981 27.4902 28.6439 27.5193 28.4998 27.5775C28.3557 27.6357 28.2245 27.7218 28.1137 27.8308V27.8308Z" fill="#ED6C3A"/>
</svg>
