<svg width="82" height="66" viewBox="0 0 82 66" fill="none" xmlns="http://www.w3.org/2000/svg">
<circle cx="41" cy="23" r="21" fill="#C4C4C4" fill-opacity="0.4"/>
<path d="M18.4512 26.433C19.2873 30.4969 21.2554 34.2415 24.1286 37.2347C27.0017 40.228 30.6627 42.3477 34.689 43.3493C38.7153 44.3509 42.9427 44.1936 46.8834 42.8954C50.8241 41.5973 54.3174 39.2112 56.9601 36.0127C59.6027 32.8142 61.2871 28.9336 61.8187 24.8188C62.3503 20.7039 61.7074 16.5227 59.9644 12.7576C58.2214 8.99246 55.4492 5.79698 51.9678 3.53997C48.4864 1.28295 44.4377 0.0564084 40.289 0.00189876L40.2448 3.36832C43.7586 3.41448 47.1877 4.45333 50.1363 6.36495C53.0849 8.27657 55.4329 10.983 56.9092 14.172C58.3855 17.3609 58.93 20.9023 58.4797 24.3874C58.0295 27.8725 56.6029 31.1593 54.3646 33.8683C52.1264 36.5774 49.1677 38.5983 45.83 39.6977C42.4924 40.7972 38.9119 40.9305 35.5017 40.0822C32.0916 39.2338 28.9909 37.4385 26.5574 34.9033C24.1239 32.3682 22.457 29.1966 21.7489 25.7546L18.4512 26.433Z" fill="#3B5999"/>
<path d="M5.89255 53.92H3.10855V52.6H10.2365V53.92H7.45255V61H5.89255V53.92ZM13.3715 54.52C14.3155 54.52 15.0355 54.748 15.5315 55.204C16.0355 55.652 16.2875 56.332 16.2875 57.244V61H14.8715V60.22C14.6875 60.5 14.4235 60.716 14.0795 60.868C13.7435 61.012 13.3355 61.084 12.8555 61.084C12.3755 61.084 11.9555 61.004 11.5955 60.844C11.2355 60.676 10.9555 60.448 10.7555 60.16C10.5635 59.864 10.4675 59.532 10.4675 59.164C10.4675 58.588 10.6795 58.128 11.1035 57.784C11.5355 57.432 12.2115 57.256 13.1315 57.256H14.7875V57.16C14.7875 56.712 14.6515 56.368 14.3795 56.128C14.1155 55.888 13.7195 55.768 13.1915 55.768C12.8315 55.768 12.4755 55.824 12.1235 55.936C11.7795 56.048 11.4875 56.204 11.2475 56.404L10.6595 55.312C10.9955 55.056 11.3995 54.86 11.8715 54.724C12.3435 54.588 12.8435 54.52 13.3715 54.52ZM13.1675 59.992C13.5435 59.992 13.8755 59.908 14.1635 59.74C14.4595 59.564 14.6675 59.316 14.7875 58.996V58.252H13.2395C12.3755 58.252 11.9435 58.536 11.9435 59.104C11.9435 59.376 12.0515 59.592 12.2675 59.752C12.4835 59.912 12.7835 59.992 13.1675 59.992ZM18.2125 54.592H19.7125V61H18.2125V54.592ZM18.9685 53.536C18.6965 53.536 18.4685 53.452 18.2845 53.284C18.1005 53.108 18.0085 52.892 18.0085 52.636C18.0085 52.38 18.1005 52.168 18.2845 52C18.4685 51.824 18.6965 51.736 18.9685 51.736C19.2405 51.736 19.4685 51.82 19.6525 51.988C19.8365 52.148 19.9285 52.352 19.9285 52.6C19.9285 52.864 19.8365 53.088 19.6525 53.272C19.4765 53.448 19.2485 53.536 18.9685 53.536ZM21.6813 52.096H23.1813V61H21.6813V52.096ZM35.146 54.592L32.782 61H31.342L29.686 56.584L28.006 61H26.566L24.214 54.592H25.63L27.322 59.32L29.086 54.592H30.346L32.074 59.344L33.814 54.592H35.146ZM36.1774 54.592H37.6774V61H36.1774V54.592ZM36.9334 53.536C36.6614 53.536 36.4334 53.452 36.2494 53.284C36.0654 53.108 35.9734 52.892 35.9734 52.636C35.9734 52.38 36.0654 52.168 36.2494 52C36.4334 51.824 36.6614 51.736 36.9334 51.736C37.2054 51.736 37.4334 51.82 37.6174 51.988C37.8014 52.148 37.8934 52.352 37.8934 52.6C37.8934 52.864 37.8014 53.088 37.6174 53.272C37.4414 53.448 37.2134 53.536 36.9334 53.536ZM43.2821 54.52C44.0901 54.52 44.7381 54.756 45.2261 55.228C45.7141 55.7 45.9581 56.4 45.9581 57.328V61H44.4581V57.52C44.4581 56.96 44.3261 56.54 44.0621 56.26C43.7981 55.972 43.4221 55.828 42.9341 55.828C42.3821 55.828 41.9461 55.996 41.6261 56.332C41.3061 56.66 41.1461 57.136 41.1461 57.76V61H39.6461V54.592H41.0741V55.42C41.3221 55.124 41.6341 54.9 42.0101 54.748C42.3861 54.596 42.8101 54.52 43.2821 54.52ZM54.1955 52.096V61H52.7555V60.172C52.5075 60.476 52.1995 60.704 51.8315 60.856C51.4715 61.008 51.0715 61.084 50.6315 61.084C50.0155 61.084 49.4595 60.948 48.9635 60.676C48.4755 60.404 48.0915 60.02 47.8115 59.524C47.5315 59.02 47.3915 58.444 47.3915 57.796C47.3915 57.148 47.5315 56.576 47.8115 56.08C48.0915 55.584 48.4755 55.2 48.9635 54.928C49.4595 54.656 50.0155 54.52 50.6315 54.52C51.0555 54.52 51.4435 54.592 51.7955 54.736C52.1475 54.88 52.4475 55.096 52.6955 55.384V52.096H54.1955ZM50.8115 59.8C51.1715 59.8 51.4955 59.72 51.7835 59.56C52.0715 59.392 52.2995 59.156 52.4675 58.852C52.6355 58.548 52.7195 58.196 52.7195 57.796C52.7195 57.396 52.6355 57.044 52.4675 56.74C52.2995 56.436 52.0715 56.204 51.7835 56.044C51.4955 55.876 51.1715 55.792 50.8115 55.792C50.4515 55.792 50.1275 55.876 49.8395 56.044C49.5515 56.204 49.3235 56.436 49.1555 56.74C48.9875 57.044 48.9035 57.396 48.9035 57.796C48.9035 58.196 48.9875 58.548 49.1555 58.852C49.3235 59.156 49.5515 59.392 49.8395 59.56C50.1275 59.72 50.4515 59.8 50.8115 59.8ZM60.1898 61.12C59.3418 61.12 58.5738 60.936 57.8858 60.568C57.2058 60.192 56.6698 59.676 56.2778 59.02C55.8938 58.364 55.7018 57.624 55.7018 56.8C55.7018 55.976 55.8978 55.236 56.2898 54.58C56.6818 53.924 57.2178 53.412 57.8978 53.044C58.5858 52.668 59.3538 52.48 60.2018 52.48C60.8898 52.48 61.5178 52.6 62.0858 52.84C62.6538 53.08 63.1338 53.428 63.5258 53.884L62.5178 54.832C61.9098 54.176 61.1618 53.848 60.2738 53.848C59.6978 53.848 59.1818 53.976 58.7258 54.232C58.2698 54.48 57.9138 54.828 57.6578 55.276C57.4018 55.724 57.2738 56.232 57.2738 56.8C57.2738 57.368 57.4018 57.876 57.6578 58.324C57.9138 58.772 58.2698 59.124 58.7258 59.38C59.1818 59.628 59.6978 59.752 60.2738 59.752C61.1618 59.752 61.9098 59.42 62.5178 58.756L63.5258 59.716C63.1338 60.172 62.6498 60.52 62.0738 60.76C61.5058 61 60.8778 61.12 60.1898 61.12ZM67.5777 61.12C66.9297 61.12 66.3017 61.028 65.6937 60.844C65.0937 60.66 64.6177 60.416 64.2657 60.112L64.8057 58.9C65.1497 59.172 65.5697 59.396 66.0657 59.572C66.5697 59.74 67.0737 59.824 67.5777 59.824C68.2017 59.824 68.6657 59.724 68.9697 59.524C69.2817 59.324 69.4377 59.06 69.4377 58.732C69.4377 58.492 69.3497 58.296 69.1737 58.144C69.0057 57.984 68.7897 57.86 68.5257 57.772C68.2617 57.684 67.9017 57.584 67.4457 57.472C66.8057 57.32 66.2857 57.168 65.8857 57.016C65.4937 56.864 65.1537 56.628 64.8657 56.308C64.5857 55.98 64.4457 55.54 64.4457 54.988C64.4457 54.524 64.5697 54.104 64.8177 53.728C65.0737 53.344 65.4537 53.04 65.9577 52.816C66.4697 52.592 67.0937 52.48 67.8297 52.48C68.3417 52.48 68.8457 52.544 69.3417 52.672C69.8377 52.8 70.2657 52.984 70.6257 53.224L70.1337 54.436C69.7657 54.22 69.3817 54.056 68.9817 53.944C68.5817 53.832 68.1937 53.776 67.8177 53.776C67.2017 53.776 66.7417 53.88 66.4377 54.088C66.1417 54.296 65.9937 54.572 65.9937 54.916C65.9937 55.156 66.0777 55.352 66.2457 55.504C66.4217 55.656 66.6417 55.776 66.9057 55.864C67.1697 55.952 67.5297 56.052 67.9857 56.164C68.6097 56.308 69.1217 56.46 69.5217 56.62C69.9217 56.772 70.2617 57.008 70.5417 57.328C70.8297 57.648 70.9737 58.08 70.9737 58.624C70.9737 59.088 70.8457 59.508 70.5897 59.884C70.3417 60.26 69.9617 60.56 69.4497 60.784C68.9377 61.008 68.3137 61.12 67.5777 61.12ZM75.1246 61.12C74.4766 61.12 73.8486 61.028 73.2406 60.844C72.6406 60.66 72.1646 60.416 71.8126 60.112L72.3526 58.9C72.6966 59.172 73.1166 59.396 73.6126 59.572C74.1166 59.74 74.6206 59.824 75.1246 59.824C75.7486 59.824 76.2126 59.724 76.5166 59.524C76.8286 59.324 76.9846 59.06 76.9846 58.732C76.9846 58.492 76.8966 58.296 76.7206 58.144C76.5526 57.984 76.3366 57.86 76.0726 57.772C75.8086 57.684 75.4486 57.584 74.9926 57.472C74.3526 57.32 73.8326 57.168 73.4326 57.016C73.0406 56.864 72.7006 56.628 72.4126 56.308C72.1326 55.98 71.9926 55.54 71.9926 54.988C71.9926 54.524 72.1166 54.104 72.3646 53.728C72.6206 53.344 73.0006 53.04 73.5046 52.816C74.0166 52.592 74.6406 52.48 75.3766 52.48C75.8886 52.48 76.3926 52.544 76.8886 52.672C77.3846 52.8 77.8126 52.984 78.1726 53.224L77.6806 54.436C77.3126 54.22 76.9286 54.056 76.5286 53.944C76.1286 53.832 75.7406 53.776 75.3646 53.776C74.7486 53.776 74.2886 53.88 73.9846 54.088C73.6886 54.296 73.5406 54.572 73.5406 54.916C73.5406 55.156 73.6246 55.352 73.7926 55.504C73.9686 55.656 74.1886 55.776 74.4526 55.864C74.7166 55.952 75.0766 56.052 75.5326 56.164C76.1566 56.308 76.6686 56.46 77.0686 56.62C77.4686 56.772 77.8086 57.008 78.0886 57.328C78.3766 57.648 78.5206 58.08 78.5206 58.624C78.5206 59.088 78.3926 59.508 78.1366 59.884C77.8886 60.26 77.5086 60.56 76.9966 60.784C76.4846 61.008 75.8606 61.12 75.1246 61.12Z" fill="#545454"/>
<path fill-rule="evenodd" clip-rule="evenodd" d="M40.5 14C36.6333 14 34.2167 16 33.25 20C34.7 18 36.3917 17.25 38.325 17.75C39.4281 18.035 40.2164 18.8633 41.0891 19.7794C42.5107 21.2722 44.1561 23 47.75 23C51.6167 23 54.0333 21 55 17C53.55 19 51.8583 19.75 49.925 19.25C48.8219 18.965 48.0336 18.1367 47.1609 17.2206C45.7393 15.7278 44.0939 14 40.5 14ZM33.25 23C29.3833 23 26.9667 25 26 29C27.45 27 29.1417 26.25 31.075 26.75C32.1781 27.0356 32.9664 27.8633 33.8391 28.7794C35.2607 30.2722 36.9061 32 40.5 32C44.3667 32 46.7833 30 47.75 26C46.3 28 44.6083 28.75 42.675 28.25C41.5719 27.965 40.7836 27.1367 39.9109 26.2206C38.4893 24.7278 36.8439 23 33.25 23Z" fill="#06B6D4"/>
</svg>
