<svg width="67" height="64" viewBox="0 0 67 64" fill="none" xmlns="http://www.w3.org/2000/svg">
<circle cx="35" cy="23" r="21" fill="#C4C4C4" fill-opacity="0.4"/>
<path d="M12.4512 26.433C13.2873 30.4969 15.2554 34.2415 18.1286 37.2347C21.0017 40.228 24.6627 42.3477 28.689 43.3493C32.7153 44.3509 36.9427 44.1936 40.8834 42.8954C44.8241 41.5973 48.3174 39.2112 50.9601 36.0127C53.6027 32.8142 55.2871 28.9336 55.8187 24.8188C56.3503 20.7039 55.7074 16.5227 53.9644 12.7576C52.2214 8.99246 49.4492 5.79698 45.9678 3.53997C42.4864 1.28295 38.4377 0.0564084 34.289 0.00189876L34.2448 3.36832C37.7586 3.41448 41.1877 4.45333 44.1363 6.36495C47.0849 8.27657 49.4329 10.983 50.9092 14.172C52.3855 17.3609 52.93 20.9023 52.4797 24.3874C52.0295 27.8725 50.6029 31.1593 48.3646 33.8683C46.1264 36.5774 43.1677 38.5982 39.83 39.6977C36.4924 40.7972 32.9119 40.9305 29.5017 40.0822C26.0916 39.2338 22.9909 37.4385 20.5574 34.9033C18.1239 32.3682 16.457 29.1966 15.7489 25.7546L12.4512 26.433Z" fill="#3B5999"/>
<path d="M9.87688 54.632C10.3409 54.784 10.7089 55.04 10.9809 55.4C11.2529 55.752 11.3889 56.192 11.3889 56.72C11.3889 57.448 11.1089 58.012 10.5489 58.412C9.98888 58.804 9.17288 59 8.10088 59H3.92488V50.6H7.86088C8.85288 50.6 9.61688 50.796 10.1529 51.188C10.6889 51.572 10.9569 52.104 10.9569 52.784C10.9569 53.2 10.8609 53.568 10.6689 53.888C10.4769 54.208 10.2129 54.456 9.87688 54.632ZM5.48488 51.824V54.14H7.69288C8.23688 54.14 8.65288 54.044 8.94088 53.852C9.23688 53.652 9.38488 53.364 9.38488 52.988C9.38488 52.604 9.23688 52.316 8.94088 52.124C8.65288 51.924 8.23688 51.824 7.69288 51.824H5.48488ZM8.00488 57.776C9.21288 57.776 9.81688 57.372 9.81688 56.564C9.81688 55.756 9.21288 55.352 8.00488 55.352H5.48488V57.776H8.00488ZM15.7898 59.084C15.1418 59.084 14.5578 58.944 14.0378 58.664C13.5178 58.384 13.1098 57.996 12.8138 57.5C12.5258 56.996 12.3818 56.428 12.3818 55.796C12.3818 55.164 12.5258 54.6 12.8138 54.104C13.1098 53.608 13.5178 53.22 14.0378 52.94C14.5578 52.66 15.1418 52.52 15.7898 52.52C16.4458 52.52 17.0338 52.66 17.5538 52.94C18.0738 53.22 18.4778 53.608 18.7658 54.104C19.0618 54.6 19.2098 55.164 19.2098 55.796C19.2098 56.428 19.0618 56.996 18.7658 57.5C18.4778 57.996 18.0738 58.384 17.5538 58.664C17.0338 58.944 16.4458 59.084 15.7898 59.084ZM15.7898 57.8C16.3418 57.8 16.7978 57.616 17.1578 57.248C17.5178 56.88 17.6978 56.396 17.6978 55.796C17.6978 55.196 17.5178 54.712 17.1578 54.344C16.7978 53.976 16.3418 53.792 15.7898 53.792C15.2378 53.792 14.7818 53.976 14.4218 54.344C14.0698 54.712 13.8938 55.196 13.8938 55.796C13.8938 56.396 14.0698 56.88 14.4218 57.248C14.7818 57.616 15.2378 57.8 15.7898 57.8ZM23.5242 59.084C22.8762 59.084 22.2922 58.944 21.7722 58.664C21.2522 58.384 20.8442 57.996 20.5482 57.5C20.2602 56.996 20.1162 56.428 20.1162 55.796C20.1162 55.164 20.2602 54.6 20.5482 54.104C20.8442 53.608 21.2522 53.22 21.7722 52.94C22.2922 52.66 22.8762 52.52 23.5242 52.52C24.1802 52.52 24.7682 52.66 25.2882 52.94C25.8082 53.22 26.2122 53.608 26.5002 54.104C26.7962 54.6 26.9442 55.164 26.9442 55.796C26.9442 56.428 26.7962 56.996 26.5002 57.5C26.2122 57.996 25.8082 58.384 25.2882 58.664C24.7682 58.944 24.1802 59.084 23.5242 59.084ZM23.5242 57.8C24.0762 57.8 24.5322 57.616 24.8922 57.248C25.2522 56.88 25.4322 56.396 25.4322 55.796C25.4322 55.196 25.2522 54.712 24.8922 54.344C24.5322 53.976 24.0762 53.792 23.5242 53.792C22.9722 53.792 22.5162 53.976 22.1562 54.344C21.8042 54.712 21.6282 55.196 21.6282 55.796C21.6282 56.396 21.8042 56.88 22.1562 57.248C22.5162 57.616 22.9722 57.8 23.5242 57.8ZM32.2305 58.652C32.0545 58.796 31.8385 58.904 31.5825 58.976C31.3345 59.048 31.0705 59.084 30.7905 59.084C30.0865 59.084 29.5425 58.9 29.1585 58.532C28.7745 58.164 28.5825 57.628 28.5825 56.924V53.84H27.5265V52.64H28.5825V51.176H30.0825V52.64H31.7985V53.84H30.0825V56.888C30.0825 57.2 30.1585 57.44 30.3105 57.608C30.4625 57.768 30.6825 57.848 30.9705 57.848C31.3065 57.848 31.5865 57.76 31.8105 57.584L32.2305 58.652ZM35.4445 59.084C34.9245 59.084 34.4165 59.016 33.9205 58.88C33.4245 58.744 33.0285 58.572 32.7325 58.364L33.3085 57.224C33.5965 57.416 33.9405 57.572 34.3405 57.692C34.7485 57.804 35.1485 57.86 35.5405 57.86C36.4365 57.86 36.8845 57.624 36.8845 57.152C36.8845 56.928 36.7685 56.772 36.5365 56.684C36.3125 56.596 35.9485 56.512 35.4445 56.432C34.9165 56.352 34.4845 56.26 34.1485 56.156C33.8205 56.052 33.5325 55.872 33.2845 55.616C33.0445 55.352 32.9245 54.988 32.9245 54.524C32.9245 53.916 33.1765 53.432 33.6805 53.072C34.1925 52.704 34.8805 52.52 35.7445 52.52C36.1845 52.52 36.6245 52.572 37.0645 52.676C37.5045 52.772 37.8645 52.904 38.1445 53.072L37.5685 54.212C37.0245 53.892 36.4125 53.732 35.7325 53.732C35.2925 53.732 34.9565 53.8 34.7245 53.936C34.5005 54.064 34.3885 54.236 34.3885 54.452C34.3885 54.692 34.5085 54.864 34.7485 54.968C34.9965 55.064 35.3765 55.156 35.8885 55.244C36.4005 55.324 36.8205 55.416 37.1485 55.52C37.4765 55.624 37.7565 55.8 37.9885 56.048C38.2285 56.296 38.3485 56.648 38.3485 57.104C38.3485 57.704 38.0885 58.184 37.5685 58.544C37.0485 58.904 36.3405 59.084 35.4445 59.084ZM43.4923 58.652C43.3163 58.796 43.1003 58.904 42.8443 58.976C42.5963 59.048 42.3323 59.084 42.0523 59.084C41.3483 59.084 40.8043 58.9 40.4202 58.532C40.0363 58.164 39.8443 57.628 39.8443 56.924V53.84H38.7883V52.64H39.8443V51.176H41.3443V52.64H43.0603V53.84H41.3443V56.888C41.3443 57.2 41.4203 57.44 41.5723 57.608C41.7243 57.768 41.9443 57.848 42.2323 57.848C42.5683 57.848 42.8483 57.76 43.0723 57.584L43.4923 58.652ZM46.1542 53.528C46.5862 52.856 47.3462 52.52 48.4342 52.52V53.948C48.3062 53.924 48.1902 53.912 48.0862 53.912C47.5022 53.912 47.0462 54.084 46.7182 54.428C46.3902 54.764 46.2262 55.252 46.2262 55.892V59H44.7262V52.592H46.1542V53.528ZM52.1195 52.52C53.0635 52.52 53.7835 52.748 54.2795 53.204C54.7835 53.652 55.0355 54.332 55.0355 55.244V59H53.6195V58.22C53.4355 58.5 53.1715 58.716 52.8275 58.868C52.4915 59.012 52.0835 59.084 51.6035 59.084C51.1235 59.084 50.7035 59.004 50.3435 58.844C49.9835 58.676 49.7035 58.448 49.5035 58.16C49.3115 57.864 49.2155 57.532 49.2155 57.164C49.2155 56.588 49.4275 56.128 49.8515 55.784C50.2835 55.432 50.9595 55.256 51.8795 55.256H53.5355V55.16C53.5355 54.712 53.3995 54.368 53.1275 54.128C52.8635 53.888 52.4675 53.768 51.9395 53.768C51.5795 53.768 51.2235 53.824 50.8715 53.936C50.5275 54.048 50.2355 54.204 49.9955 54.404L49.4075 53.312C49.7435 53.056 50.1475 52.86 50.6195 52.724C51.0915 52.588 51.5915 52.52 52.1195 52.52ZM51.9155 57.992C52.2915 57.992 52.6235 57.908 52.9115 57.74C53.2075 57.564 53.4155 57.316 53.5355 56.996V56.252H51.9875C51.1235 56.252 50.6915 56.536 50.6915 57.104C50.6915 57.376 50.7995 57.592 51.0155 57.752C51.2315 57.912 51.5315 57.992 51.9155 57.992ZM60.5126 52.52C61.1366 52.52 61.6926 52.656 62.1806 52.928C62.6766 53.2 63.0646 53.584 63.3446 54.08C63.6246 54.576 63.7646 55.148 63.7646 55.796C63.7646 56.444 63.6246 57.02 63.3446 57.524C63.0646 58.02 62.6766 58.404 62.1806 58.676C61.6926 58.948 61.1366 59.084 60.5126 59.084C59.6486 59.084 58.9646 58.796 58.4606 58.22V61.328H56.9606V52.592H58.3886V53.432C58.6366 53.128 58.9406 52.9 59.3006 52.748C59.6686 52.596 60.0726 52.52 60.5126 52.52ZM60.3446 57.8C60.8966 57.8 61.3486 57.616 61.7006 57.248C62.0606 56.88 62.2406 56.396 62.2406 55.796C62.2406 55.196 62.0606 54.712 61.7006 54.344C61.3486 53.976 60.8966 53.792 60.3446 53.792C59.9846 53.792 59.6606 53.876 59.3726 54.044C59.0846 54.204 58.8566 54.436 58.6886 54.74C58.5206 55.044 58.4366 55.396 58.4366 55.796C58.4366 56.196 58.5206 56.548 58.6886 56.852C58.8566 57.156 59.0846 57.392 59.3726 57.56C59.6606 57.72 59.9846 57.8 60.3446 57.8Z" fill="#545454"/>
<g clip-path="url(#clip0_463_153)">
<path d="M22.9993 31.1633C22.9993 32.7301 24.2693 34 25.836 34H42.1625C43.7294 34 44.9993 32.7299 44.9993 31.1633V14.8368C44.9993 13.2699 43.7292 12 42.1626 12H25.8361C24.2692 12 22.9993 13.2701 22.9993 14.8367V31.1633Z" fill="#563D7C"/>
<path d="M32.1229 21.7316V18.6161H34.8652C35.1265 18.6161 35.3783 18.6379 35.6208 18.6815C35.8633 18.7249 36.0779 18.8026 36.2644 18.9146C36.4509 19.0266 36.6002 19.182 36.7122 19.381C36.8241 19.58 36.8801 19.835 36.8801 20.1458C36.8801 20.7055 36.7122 21.1098 36.3763 21.3585C36.0406 21.6073 35.6115 21.7316 35.0891 21.7316H32.1229V21.7316ZM29.1938 16.3401V29.6604H35.6488C36.2458 29.6604 36.8272 29.5858 37.3931 29.4365C37.959 29.2873 38.4627 29.0572 38.9043 28.7463C39.3457 28.4354 39.6971 28.0342 39.9583 27.543C40.2195 27.0517 40.3501 26.4702 40.3501 25.7986C40.3501 24.9653 40.148 24.2533 39.7438 23.6626C39.3395 23.0717 38.727 22.6582 37.9061 22.4219C38.5031 22.1359 38.954 21.7689 39.2588 21.3212C39.5634 20.8735 39.7158 20.3138 39.7158 19.6421C39.7158 19.0203 39.6132 18.498 39.4079 18.0751C39.2027 17.6523 38.9135 17.3133 38.5404 17.0584C38.1674 16.8034 37.7196 16.6199 37.1972 16.508C36.6749 16.396 36.0965 16.3401 35.4622 16.3401H29.1938V16.3401ZM32.1229 27.3843V23.7278H35.3129C35.9472 23.7278 36.4572 23.8739 36.8428 24.1662C37.2283 24.4585 37.4212 24.9466 37.4212 25.6307C37.4212 25.979 37.362 26.265 37.2439 26.4889C37.1257 26.7127 36.9672 26.89 36.7681 27.0206C36.5692 27.1512 36.339 27.2444 36.0779 27.3005C35.8166 27.3563 35.5431 27.3843 35.257 27.3843H32.1229V27.3843Z" fill="white"/>
</g>
<defs>
<clipPath id="clip0_463_153">
<rect width="22" height="22" fill="white" transform="translate(23 12)"/>
</clipPath>
</defs>
</svg>
