<svg width="44" height="64" viewBox="0 0 44 64" fill="none" xmlns="http://www.w3.org/2000/svg">
<circle cx="22" cy="23" r="21" fill="#C4C4C4" fill-opacity="0.4"/>
<path d="M0.451243 26.433C1.28726 30.4969 3.25542 34.2415 6.12856 37.2347C9.0017 40.228 12.6627 42.3477 16.689 43.3493C20.7153 44.3509 24.9427 44.1936 28.8834 42.8954C32.8241 41.5973 36.3174 39.2112 38.9601 36.0127C41.6027 32.8142 43.2871 28.9336 43.8187 24.8188C44.3503 20.7039 43.7074 16.5227 41.9644 12.7576C40.2214 8.99246 37.4492 5.79698 33.9678 3.53997C30.4864 1.28295 26.4377 0.0564084 22.289 0.00189876L22.2448 3.36832C25.7586 3.41448 29.1877 4.45333 32.1363 6.36495C35.0849 8.27657 37.4329 10.983 38.9092 14.172C40.3855 17.3609 40.93 20.9023 40.4797 24.3874C40.0295 27.8725 38.6029 31.1593 36.3646 33.8683C34.1264 36.5774 31.1677 38.5982 27.83 39.6977C24.4924 40.7972 20.9119 40.9305 17.5017 40.0822C14.0916 39.2338 10.9909 37.4385 8.5574 34.9033C6.12394 32.3682 4.45698 29.1966 3.7489 25.7546L0.451243 26.433Z" fill="#3B5999"/>
<path d="M11.2953 59.12C10.4473 59.12 9.6793 58.936 8.9913 58.568C8.3113 58.192 7.7753 57.676 7.3833 57.02C6.9993 56.364 6.8073 55.624 6.8073 54.8C6.8073 53.976 7.0033 53.236 7.3953 52.58C7.7873 51.924 8.3233 51.412 9.0033 51.044C9.6913 50.668 10.4593 50.48 11.3073 50.48C11.9953 50.48 12.6233 50.6 13.1913 50.84C13.7593 51.08 14.2393 51.428 14.6313 51.884L13.6233 52.832C13.0153 52.176 12.2673 51.848 11.3793 51.848C10.8033 51.848 10.2873 51.976 9.8313 52.232C9.3753 52.48 9.0193 52.828 8.7633 53.276C8.5073 53.724 8.3793 54.232 8.3793 54.8C8.3793 55.368 8.5073 55.876 8.7633 56.324C9.0193 56.772 9.3753 57.124 9.8313 57.38C10.2873 57.628 10.8033 57.752 11.3793 57.752C12.2673 57.752 13.0153 57.42 13.6233 56.756L14.6313 57.716C14.2393 58.172 13.7553 58.52 13.1793 58.76C12.6113 59 11.9833 59.12 11.2953 59.12ZM18.6832 59.12C18.0352 59.12 17.4072 59.028 16.7992 58.844C16.1992 58.66 15.7232 58.416 15.3712 58.112L15.9112 56.9C16.2552 57.172 16.6752 57.396 17.1712 57.572C17.6752 57.74 18.1792 57.824 18.6832 57.824C19.3072 57.824 19.7712 57.724 20.0752 57.524C20.3872 57.324 20.5432 57.06 20.5432 56.732C20.5432 56.492 20.4552 56.296 20.2792 56.144C20.1112 55.984 19.8952 55.86 19.6312 55.772C19.3672 55.684 19.0072 55.584 18.5512 55.472C17.9112 55.32 17.3912 55.168 16.9912 55.016C16.5992 54.864 16.2592 54.628 15.9712 54.308C15.6912 53.98 15.5512 53.54 15.5512 52.988C15.5512 52.524 15.6752 52.104 15.9232 51.728C16.1792 51.344 16.5592 51.04 17.0632 50.816C17.5752 50.592 18.1992 50.48 18.9352 50.48C19.4472 50.48 19.9512 50.544 20.4472 50.672C20.9432 50.8 21.3712 50.984 21.7312 51.224L21.2392 52.436C20.8712 52.22 20.4872 52.056 20.0872 51.944C19.6872 51.832 19.2992 51.776 18.9232 51.776C18.3072 51.776 17.8472 51.88 17.5432 52.088C17.2472 52.296 17.0992 52.572 17.0992 52.916C17.0992 53.156 17.1832 53.352 17.3512 53.504C17.5272 53.656 17.7472 53.776 18.0112 53.864C18.2752 53.952 18.6352 54.052 19.0912 54.164C19.7152 54.308 20.2272 54.46 20.6272 54.62C21.0272 54.772 21.3672 55.008 21.6472 55.328C21.9352 55.648 22.0792 56.08 22.0792 56.624C22.0792 57.088 21.9512 57.508 21.6952 57.884C21.4472 58.26 21.0672 58.56 20.5552 58.784C20.0432 59.008 19.4192 59.12 18.6832 59.12ZM26.23 59.12C25.582 59.12 24.954 59.028 24.346 58.844C23.746 58.66 23.27 58.416 22.918 58.112L23.458 56.9C23.802 57.172 24.222 57.396 24.718 57.572C25.222 57.74 25.726 57.824 26.23 57.824C26.854 57.824 27.318 57.724 27.622 57.524C27.934 57.324 28.09 57.06 28.09 56.732C28.09 56.492 28.002 56.296 27.826 56.144C27.658 55.984 27.442 55.86 27.178 55.772C26.914 55.684 26.554 55.584 26.098 55.472C25.458 55.32 24.938 55.168 24.538 55.016C24.146 54.864 23.806 54.628 23.518 54.308C23.238 53.98 23.098 53.54 23.098 52.988C23.098 52.524 23.222 52.104 23.47 51.728C23.726 51.344 24.106 51.04 24.61 50.816C25.122 50.592 25.746 50.48 26.482 50.48C26.994 50.48 27.498 50.544 27.994 50.672C28.49 50.8 28.918 50.984 29.278 51.224L28.786 52.436C28.418 52.22 28.034 52.056 27.634 51.944C27.234 51.832 26.846 51.776 26.47 51.776C25.854 51.776 25.394 51.88 25.09 52.088C24.794 52.296 24.646 52.572 24.646 52.916C24.646 53.156 24.73 53.352 24.898 53.504C25.074 53.656 25.294 53.776 25.558 53.864C25.822 53.952 26.182 54.052 26.638 54.164C27.262 54.308 27.774 54.46 28.174 54.62C28.574 54.772 28.914 55.008 29.194 55.328C29.482 55.648 29.626 56.08 29.626 56.624C29.626 57.088 29.498 57.508 29.242 57.884C28.994 58.26 28.614 58.56 28.102 58.784C27.59 59.008 26.966 59.12 26.23 59.12ZM34.0903 54.068C34.8663 54.164 35.4583 54.428 35.8663 54.86C36.2743 55.292 36.4783 55.832 36.4783 56.48C36.4783 56.968 36.3543 57.412 36.1063 57.812C35.8583 58.212 35.4823 58.532 34.9783 58.772C34.4823 59.004 33.8743 59.12 33.1543 59.12C32.5543 59.12 31.9743 59.036 31.4143 58.868C30.8623 58.692 30.3903 58.452 29.9983 58.148L30.6703 56.936C30.9743 57.192 31.3423 57.396 31.7743 57.548C32.2143 57.692 32.6663 57.764 33.1303 57.764C33.6823 57.764 34.1143 57.652 34.4263 57.428C34.7463 57.196 34.9063 56.884 34.9063 56.492C34.9063 56.1 34.7543 55.796 34.4503 55.58C34.1543 55.356 33.6983 55.244 33.0823 55.244H32.3143V54.176L34.2223 51.908H30.4063V50.6H36.1303V51.644L34.0903 54.068Z" fill="#545454"/>
<path d="M13 12L14.7292 32.5063L22.4937 34.7848L30.2554 32.5078L31.9873 12H13Z" fill="#2196F3"/>
<path d="M28.2903 18.7058L28.072 21.2819L27.4128 29.0046L22.4938 30.4329L22.4897 30.4343L17.5733 29.0046L17.2302 24.966H19.6389L19.8179 27.0607L22.491 27.8183L22.4924 27.8169L25.1696 27.0593L25.5344 23.569L17.1149 23.5932L16.8762 21.2065L25.7365 21.0968L25.9156 18.5421L16.6389 18.5691L16.4829 16.1924H22.4938H28.5046L28.2903 18.7058Z" fill="#FAFAFA"/>
</svg>
