<svg width="47" height="64" viewBox="0 0 47 64" fill="none" xmlns="http://www.w3.org/2000/svg">
<circle cx="22" cy="23" r="21" fill="#C4C4C4" fill-opacity="0.4"/>
<path d="M0.451243 26.433C1.28726 30.4969 3.25542 34.2415 6.12856 37.2347C9.0017 40.228 12.6627 42.3477 16.689 43.3493C20.7153 44.3509 24.9427 44.1936 28.8834 42.8954C32.8241 41.5973 36.3174 39.2112 38.9601 36.0127C41.6027 32.8142 43.2871 28.9336 43.8187 24.8188C44.3503 20.7039 43.7074 16.5227 41.9644 12.7576C40.2214 8.99246 37.4492 5.79698 33.9678 3.53997C30.4864 1.28295 26.4377 0.0564084 22.289 0.00189876L22.2448 3.36832C25.7586 3.41448 29.1877 4.45333 32.1363 6.36495C35.0849 8.27657 37.4329 10.983 38.9092 14.172C40.3855 17.3609 40.93 20.9023 40.4797 24.3874C40.0295 27.8725 38.6029 31.1593 36.3646 33.8683C34.1264 36.5774 31.1677 38.5982 27.83 39.6977C24.4924 40.7972 20.9119 40.9305 17.5017 40.0822C14.0916 39.2338 10.9909 37.4385 8.5574 34.9033C6.12394 32.3682 4.45698 29.1966 3.7489 25.7546L0.451243 26.433Z" fill="#3B5999"/>
<path d="M11.299 50.6V59H9.73903V55.4H5.39503V59H3.83503V50.6H5.39503V54.068H9.73903V50.6H11.299ZM15.2539 51.92H12.4699V50.6H19.5979V51.92H16.8139V59H15.2539V51.92ZM28.4846 59L28.4726 53.432L25.7126 58.04H25.0166L22.2566 53.504V59H20.7686V50.6H22.0526L25.3886 56.168L28.6646 50.6H29.9486L29.9606 59H28.4846ZM32.2296 50.6H33.7896V57.68H38.1816V59H32.2296V50.6ZM41.4412 53.852C42.6252 53.852 43.5012 54.084 44.0692 54.548C44.6372 55.004 44.9212 55.628 44.9212 56.42C44.9212 56.924 44.7972 57.38 44.5492 57.788C44.3012 58.196 43.9292 58.52 43.4332 58.76C42.9372 59 42.3252 59.12 41.5972 59.12C40.9972 59.12 40.4172 59.036 39.8572 58.868C39.2972 58.692 38.8252 58.452 38.4412 58.148L39.1012 56.936C39.4132 57.192 39.7852 57.396 40.2172 57.548C40.6572 57.692 41.1092 57.764 41.5732 57.764C42.1252 57.764 42.5572 57.652 42.8692 57.428C43.1892 57.196 43.3492 56.88 43.3492 56.48C43.3492 56.048 43.1772 55.724 42.8332 55.508C42.4972 55.284 41.9172 55.172 41.0932 55.172H39.0652L39.4972 50.6H44.4292V51.908H40.8172L40.6372 53.852H41.4412Z" fill="#545454"/>
<path d="M13 12L14.3347 31.9412L22.4937 34.7848L30.6526 31.9412L31.9873 12H13Z" fill="#FF7816"/>
<path d="M28.4241 18.0522H19.0941L19.3206 21.3898H28.1975L27.656 29.4712L22.4937 31.3003L17.3313 29.4712L17.1551 26.7745H19.6733L19.7236 27.5088L22.4937 28.4833L25.2637 27.5088L25.4903 24.0599H16.9662L16.387 15.3821H28.6003L28.4241 18.0522Z" fill="#ECECF1"/>
</svg>
