<svg width="78" height="67" viewBox="0 0 78 67" fill="none" xmlns="http://www.w3.org/2000/svg">
<circle cx="39" cy="23" r="21" fill="#C4C4C4" fill-opacity="0.4"/>
<path d="M17.4512 26.433C18.2873 30.4969 20.2554 34.2415 23.1286 37.2347C26.0017 40.228 29.6627 42.3477 33.689 43.3493C37.7153 44.3509 41.9427 44.1936 45.8834 42.8954C49.8241 41.5973 53.3174 39.2112 55.9601 36.0127C58.6027 32.8142 60.2871 28.9336 60.8187 24.8188C61.3503 20.7039 60.7074 16.5227 58.9644 12.7576C57.2214 8.99246 54.4492 5.79698 50.9678 3.53997C47.4864 1.28295 43.4377 0.0564084 39.289 0.00189876L39.2448 3.36832C42.7586 3.41448 46.1877 4.45333 49.1363 6.36495C52.0849 8.27657 54.4329 10.983 55.9092 14.172C57.3855 17.3609 57.93 20.9023 57.4797 24.3874C57.0295 27.8725 55.6029 31.1593 53.3646 33.8683C51.1264 36.5774 48.1677 38.5982 44.83 39.6977C41.4924 40.7972 37.9119 40.9305 34.5017 40.0822C31.0916 39.2338 27.9909 37.4385 25.5574 34.9033C23.1239 32.3682 21.457 29.1966 20.7489 25.7546L17.4512 26.433Z" fill="#3B5999"/>
<path d="M9.03127 53.6C9.75927 53.6 10.3913 53.72 10.9273 53.96C11.4713 54.2 11.8873 54.544 12.1753 54.992C12.4633 55.44 12.6073 55.972 12.6073 56.588C12.6073 57.196 12.4633 57.728 12.1753 58.184C11.8873 58.632 11.4713 58.976 10.9273 59.216C10.3913 59.456 9.75927 59.576 9.03127 59.576H7.13527V62H5.57527V53.6H9.03127ZM8.95927 58.256C9.63927 58.256 10.1553 58.112 10.5073 57.824C10.8593 57.536 11.0353 57.124 11.0353 56.588C11.0353 56.052 10.8593 55.64 10.5073 55.352C10.1553 55.064 9.63927 54.92 8.95927 54.92H7.13527V58.256H8.95927ZM17.7743 55.52C18.5823 55.52 19.2303 55.756 19.7183 56.228C20.2063 56.7 20.4503 57.4 20.4503 58.328V62H18.9503V58.52C18.9503 57.96 18.8183 57.54 18.5543 57.26C18.2903 56.972 17.9143 56.828 17.4263 56.828C16.8743 56.828 16.4383 56.996 16.1183 57.332C15.7983 57.66 15.6383 58.136 15.6383 58.76V62H14.1383V53.096H15.6383V56.336C15.8863 56.072 16.1903 55.872 16.5503 55.736C16.9183 55.592 17.3263 55.52 17.7743 55.52ZM25.2917 62.084C24.6437 62.084 24.0597 61.944 23.5397 61.664C23.0197 61.384 22.6117 60.996 22.3157 60.5C22.0277 59.996 21.8837 59.428 21.8837 58.796C21.8837 58.164 22.0277 57.6 22.3157 57.104C22.6117 56.608 23.0197 56.22 23.5397 55.94C24.0597 55.66 24.6437 55.52 25.2917 55.52C25.9477 55.52 26.5357 55.66 27.0557 55.94C27.5757 56.22 27.9797 56.608 28.2677 57.104C28.5637 57.6 28.7117 58.164 28.7117 58.796C28.7117 59.428 28.5637 59.996 28.2677 60.5C27.9797 60.996 27.5757 61.384 27.0557 61.664C26.5357 61.944 25.9477 62.084 25.2917 62.084ZM25.2917 60.8C25.8437 60.8 26.2997 60.616 26.6597 60.248C27.0197 59.88 27.1997 59.396 27.1997 58.796C27.1997 58.196 27.0197 57.712 26.6597 57.344C26.2997 56.976 25.8437 56.792 25.2917 56.792C24.7397 56.792 24.2837 56.976 23.9237 57.344C23.5717 57.712 23.3957 58.196 23.3957 58.796C23.3957 59.396 23.5717 59.88 23.9237 60.248C24.2837 60.616 24.7397 60.8 25.2917 60.8ZM33.9981 61.652C33.8221 61.796 33.6061 61.904 33.3501 61.976C33.1021 62.048 32.8381 62.084 32.5581 62.084C31.8541 62.084 31.3101 61.9 30.9261 61.532C30.5421 61.164 30.3501 60.628 30.3501 59.924V56.84H29.2941V55.64H30.3501V54.176H31.8501V55.64H33.5661V56.84H31.8501V59.888C31.8501 60.2 31.9261 60.44 32.0781 60.608C32.2301 60.768 32.4501 60.848 32.7381 60.848C33.0741 60.848 33.3541 60.76 33.5781 60.584L33.9981 61.652ZM37.9011 62.084C37.2531 62.084 36.6691 61.944 36.1491 61.664C35.6291 61.384 35.2211 60.996 34.9251 60.5C34.6371 59.996 34.4931 59.428 34.4931 58.796C34.4931 58.164 34.6371 57.6 34.9251 57.104C35.2211 56.608 35.6291 56.22 36.1491 55.94C36.6691 55.66 37.2531 55.52 37.9011 55.52C38.5571 55.52 39.1451 55.66 39.6651 55.94C40.1851 56.22 40.5891 56.608 40.8771 57.104C41.1731 57.6 41.3211 58.164 41.3211 58.796C41.3211 59.428 41.1731 59.996 40.8771 60.5C40.5891 60.996 40.1851 61.384 39.6651 61.664C39.1451 61.944 38.5571 62.084 37.9011 62.084ZM37.9011 60.8C38.4531 60.8 38.9091 60.616 39.2691 60.248C39.6291 59.88 39.8091 59.396 39.8091 58.796C39.8091 58.196 39.6291 57.712 39.2691 57.344C38.9091 56.976 38.4531 56.792 37.9011 56.792C37.3491 56.792 36.8931 56.976 36.5331 57.344C36.1811 57.712 36.0051 58.196 36.0051 58.796C36.0051 59.396 36.1811 59.88 36.5331 60.248C36.8931 60.616 37.3491 60.8 37.9011 60.8ZM45.5035 62.12C44.8555 62.12 44.2275 62.028 43.6195 61.844C43.0195 61.66 42.5435 61.416 42.1915 61.112L42.7315 59.9C43.0755 60.172 43.4955 60.396 43.9915 60.572C44.4955 60.74 44.9995 60.824 45.5035 60.824C46.1275 60.824 46.5915 60.724 46.8955 60.524C47.2075 60.324 47.3635 60.06 47.3635 59.732C47.3635 59.492 47.2755 59.296 47.0995 59.144C46.9315 58.984 46.7155 58.86 46.4515 58.772C46.1875 58.684 45.8275 58.584 45.3715 58.472C44.7315 58.32 44.2115 58.168 43.8115 58.016C43.4195 57.864 43.0795 57.628 42.7915 57.308C42.5115 56.98 42.3715 56.54 42.3715 55.988C42.3715 55.524 42.4955 55.104 42.7435 54.728C42.9995 54.344 43.3795 54.04 43.8835 53.816C44.3955 53.592 45.0195 53.48 45.7555 53.48C46.2675 53.48 46.7715 53.544 47.2675 53.672C47.7635 53.8 48.1915 53.984 48.5515 54.224L48.0595 55.436C47.6915 55.22 47.3075 55.056 46.9075 54.944C46.5075 54.832 46.1195 54.776 45.7435 54.776C45.1275 54.776 44.6675 54.88 44.3635 55.088C44.0675 55.296 43.9195 55.572 43.9195 55.916C43.9195 56.156 44.0035 56.352 44.1715 56.504C44.3475 56.656 44.5675 56.776 44.8315 56.864C45.0955 56.952 45.4555 57.052 45.9115 57.164C46.5355 57.308 47.0475 57.46 47.4475 57.62C47.8475 57.772 48.1875 58.008 48.4675 58.328C48.7555 58.648 48.8995 59.08 48.8995 59.624C48.8995 60.088 48.7715 60.508 48.5155 60.884C48.2675 61.26 47.8875 61.56 47.3755 61.784C46.8635 62.008 46.2395 62.12 45.5035 62.12ZM53.9384 55.52C54.7464 55.52 55.3944 55.756 55.8824 56.228C56.3704 56.7 56.6144 57.4 56.6144 58.328V62H55.1144V58.52C55.1144 57.96 54.9824 57.54 54.7184 57.26C54.4544 56.972 54.0784 56.828 53.5904 56.828C53.0384 56.828 52.6024 56.996 52.2824 57.332C51.9624 57.66 51.8024 58.136 51.8024 58.76V62H50.3024V53.096H51.8024V56.336C52.0504 56.072 52.3544 55.872 52.7144 55.736C53.0824 55.592 53.4904 55.52 53.9384 55.52ZM61.4558 62.084C60.8078 62.084 60.2238 61.944 59.7038 61.664C59.1838 61.384 58.7758 60.996 58.4798 60.5C58.1918 59.996 58.0478 59.428 58.0478 58.796C58.0478 58.164 58.1918 57.6 58.4798 57.104C58.7758 56.608 59.1838 56.22 59.7038 55.94C60.2238 55.66 60.8078 55.52 61.4558 55.52C62.1118 55.52 62.6998 55.66 63.2198 55.94C63.7398 56.22 64.1438 56.608 64.4318 57.104C64.7278 57.6 64.8758 58.164 64.8758 58.796C64.8758 59.428 64.7278 59.996 64.4318 60.5C64.1438 60.996 63.7398 61.384 63.2198 61.664C62.6998 61.944 62.1118 62.084 61.4558 62.084ZM61.4558 60.8C62.0078 60.8 62.4638 60.616 62.8238 60.248C63.1838 59.88 63.3638 59.396 63.3638 58.796C63.3638 58.196 63.1838 57.712 62.8238 57.344C62.4638 56.976 62.0078 56.792 61.4558 56.792C60.9038 56.792 60.4478 56.976 60.0878 57.344C59.7358 57.712 59.5598 58.196 59.5598 58.796C59.5598 59.396 59.7358 59.88 60.0878 60.248C60.4478 60.616 60.9038 60.8 61.4558 60.8ZM69.8622 55.52C70.4862 55.52 71.0422 55.656 71.5302 55.928C72.0262 56.2 72.4142 56.584 72.6942 57.08C72.9742 57.576 73.1142 58.148 73.1142 58.796C73.1142 59.444 72.9742 60.02 72.6942 60.524C72.4142 61.02 72.0262 61.404 71.5302 61.676C71.0422 61.948 70.4862 62.084 69.8622 62.084C68.9982 62.084 68.3142 61.796 67.8102 61.22V64.328H66.3102V55.592H67.7382V56.432C67.9862 56.128 68.2902 55.9 68.6502 55.748C69.0182 55.596 69.4222 55.52 69.8622 55.52ZM69.6942 60.8C70.2462 60.8 70.6982 60.616 71.0502 60.248C71.4102 59.88 71.5902 59.396 71.5902 58.796C71.5902 58.196 71.4102 57.712 71.0502 57.344C70.6982 56.976 70.2462 56.792 69.6942 56.792C69.3342 56.792 69.0102 56.876 68.7222 57.044C68.4342 57.204 68.2062 57.436 68.0382 57.74C67.8702 58.044 67.7862 58.396 67.7862 58.796C67.7862 59.196 67.8702 59.548 68.0382 59.852C68.2062 60.156 68.4342 60.392 68.7222 60.56C69.0102 60.72 69.3342 60.8 69.6942 60.8Z" fill="#545454"/>
<g clip-path="url(#clip0_463_106)">
<path d="M48.3299 32.3299H29V13H48.3299V32.3299Z" fill="#00C3FF"/>
<path d="M48.33 32.3299H38.665V13H48.33V32.3299Z" fill="#00C3FF"/>
<path d="M47.1975 31.1972H30.1328V14.1326H47.1975V31.1972Z" fill="#063E8B"/>
<path d="M47.1974 31.1972H38.665V14.1326H47.1974V31.1972Z" fill="#063E8B"/>
<path d="M38.6651 30.0032C38.2113 30.0032 37.7846 29.8265 37.4638 29.5056L31.8243 23.8662C31.5034 23.5453 31.3267 23.1186 31.3267 22.6648C31.3267 22.211 31.5034 21.7844 31.8243 21.4635L37.4638 15.824C37.7846 15.5031 38.2113 15.3264 38.6651 15.3264C39.1189 15.3264 39.5455 15.5031 39.8664 15.824L45.5059 21.4635C45.8268 21.7844 46.0035 22.211 46.0035 22.6648C46.0035 23.1186 45.8268 23.5453 45.5059 23.8662L39.8664 29.5056C39.5455 29.8265 39.1189 30.0032 38.6651 30.0032ZM38.6651 16.459C38.5138 16.459 38.3716 16.518 38.2646 16.6249L32.6252 22.2644C32.5182 22.3713 32.4593 22.5135 32.4593 22.6648C32.4593 22.8161 32.5182 22.9583 32.6252 23.0653L38.2646 28.7047C38.3716 28.8117 38.5138 28.8706 38.6651 28.8706C38.8164 28.8706 38.9585 28.8117 39.0655 28.7047L44.705 23.0653C44.8119 22.9583 44.8709 22.8161 44.8709 22.6648C44.8709 22.5135 44.8119 22.3714 44.705 22.2644L39.0655 16.6249C38.9585 16.518 38.8164 16.459 38.6651 16.459Z" fill="#CCEFFF"/>
<path d="M45.5058 21.4635L39.8664 15.824C39.5455 15.5031 39.1188 15.3264 38.665 15.3264V16.459C38.8163 16.459 38.9585 16.518 39.0655 16.6249L44.705 22.2644C44.8119 22.3713 44.8708 22.5135 44.8708 22.6648C44.8708 22.8161 44.8119 22.9583 44.705 23.0653L39.0655 28.7047C38.9585 28.8117 38.8163 28.8706 38.665 28.8706V30.0032C39.1188 30.0032 39.5455 29.8265 39.8664 29.5056L45.5058 23.8662C45.8267 23.5453 46.0035 23.1186 46.0035 22.6648C46.0035 22.211 45.8267 21.7844 45.5058 21.4635Z" fill="#CCEFFF"/>
<path d="M40.6665 24.7641C39.9358 24.7641 39.4161 24.4319 39.2349 24.2748L39.5369 23.7674C39.7302 23.9043 40.175 24.1842 40.6484 24.1842C40.9552 24.1842 41.1679 24.0556 41.1679 23.8339C41.1679 23.5617 40.7188 23.4735 40.4732 23.405C40.2678 23.3486 39.3436 23.2187 39.3436 22.523C39.3436 21.8533 39.9264 21.478 40.588 21.478C41.2824 21.478 41.6531 21.76 41.8263 21.913L41.5001 22.4022C41.339 22.2814 40.9804 22.0519 40.5819 22.0519C40.2882 22.0519 40.0987 22.1773 40.0987 22.4083C40.0987 22.6965 40.604 22.7788 40.7208 22.807C40.9383 22.8634 41.9471 23.0174 41.9471 23.7614C41.9471 24.6408 41.0611 24.7641 40.6665 24.7641Z" fill="#00C3FF"/>
<path d="M35.7861 24.7036V20.4148H37.6043C38.4366 20.4148 38.9695 21.1799 38.9695 21.8404C38.9695 22.6188 38.3778 23.266 37.6346 23.266H36.6197V24.7036H35.7861ZM36.6197 22.535H37.5862C37.8786 22.535 38.1238 22.2622 38.1238 21.8404C38.1238 21.4779 37.9038 21.1457 37.55 21.1457H36.6197V22.535Z" fill="#00C3FF"/>
<path d="M38.665 20.9626V22.7453C38.8555 22.4979 38.9694 22.1818 38.9694 21.8405C38.9694 21.5425 38.8606 21.2234 38.665 20.9626Z" fill="#00C3FF"/>
</g>
<defs>
<clipPath id="clip0_463_106">
<rect width="19.3299" height="19.3299" fill="white" transform="translate(29 13)"/>
</clipPath>
</defs>
</svg>
