<svg width="56" height="65" viewBox="0 0 56 65" fill="none" xmlns="http://www.w3.org/2000/svg">
<circle cx="28" cy="23" r="21" fill="#C4C4C4" fill-opacity="0.4"/>
<path d="M5.45124 26.433C6.28726 30.4969 8.25542 34.2415 11.1286 37.2347C14.0017 40.228 17.6627 42.3477 21.689 43.3493C25.7153 44.3509 29.9427 44.1936 33.8834 42.8954C37.8241 41.5973 41.3174 39.2112 43.9601 36.0127C46.6027 32.8142 48.2871 28.9336 48.8187 24.8188C49.3503 20.7039 48.7074 16.5227 46.9644 12.7576C45.2214 8.99246 42.4492 5.79698 38.9678 3.53997C35.4864 1.28295 31.4377 0.0564084 27.289 0.00189876L27.2448 3.36832C30.7586 3.41448 34.1877 4.45333 37.1363 6.36495C40.0849 8.27657 42.4329 10.983 43.9092 14.172C45.3855 17.3609 45.93 20.9023 45.4797 24.3874C45.0295 27.8725 43.6029 31.1593 41.3646 33.8683C39.1264 36.5774 36.1677 38.5982 32.83 39.6977C29.4924 40.7972 25.9119 40.9305 22.5017 40.0822C19.0916 39.2338 15.9909 37.4385 13.5574 34.9033C11.1239 32.3682 9.45698 29.1966 8.7489 25.7546L5.45124 26.433Z" fill="#3B5999"/>
<path d="M4.77536 52.92H1.99136V51.6H9.11936V52.92H6.33536V60H4.77536V52.92ZM12.2543 53.52C13.1983 53.52 13.9183 53.748 14.4143 54.204C14.9183 54.652 15.1703 55.332 15.1703 56.244V60H13.7543V59.22C13.5703 59.5 13.3063 59.716 12.9623 59.868C12.6263 60.012 12.2183 60.084 11.7383 60.084C11.2583 60.084 10.8383 60.004 10.4783 59.844C10.1183 59.676 9.83827 59.448 9.63827 59.16C9.44627 58.864 9.35027 58.532 9.35027 58.164C9.35027 57.588 9.56227 57.128 9.98627 56.784C10.4183 56.432 11.0943 56.256 12.0143 56.256H13.6703V56.16C13.6703 55.712 13.5343 55.368 13.2623 55.128C12.9983 54.888 12.6023 54.768 12.0743 54.768C11.7143 54.768 11.3583 54.824 11.0063 54.936C10.6623 55.048 10.3703 55.204 10.1303 55.404L9.54227 54.312C9.87827 54.056 10.2823 53.86 10.7543 53.724C11.2263 53.588 11.7263 53.52 12.2543 53.52ZM12.0503 58.992C12.4263 58.992 12.7583 58.908 13.0463 58.74C13.3423 58.564 13.5503 58.316 13.6703 57.996V57.252H12.1223C11.2583 57.252 10.8263 57.536 10.8263 58.104C10.8263 58.376 10.9343 58.592 11.1503 58.752C11.3663 58.912 11.6663 58.992 12.0503 58.992ZM17.0953 53.592H18.5953V60H17.0953V53.592ZM17.8513 52.536C17.5793 52.536 17.3513 52.452 17.1673 52.284C16.9833 52.108 16.8913 51.892 16.8913 51.636C16.8913 51.38 16.9833 51.168 17.1673 51C17.3513 50.824 17.5793 50.736 17.8513 50.736C18.1233 50.736 18.3513 50.82 18.5353 50.988C18.7193 51.148 18.8113 51.352 18.8113 51.6C18.8113 51.864 18.7193 52.088 18.5353 52.272C18.3593 52.448 18.1313 52.536 17.8513 52.536ZM20.5641 51.096H22.0641V60H20.5641V51.096ZM34.0288 53.592L31.6648 60H30.2248L28.5688 55.584L26.8888 60H25.4488L23.0968 53.592H24.5128L26.2048 58.32L27.9688 53.592H29.2288L30.9568 58.344L32.6968 53.592H34.0288ZM35.0602 53.592H36.5602V60H35.0602V53.592ZM35.8162 52.536C35.5442 52.536 35.3162 52.452 35.1322 52.284C34.9482 52.108 34.8562 51.892 34.8562 51.636C34.8562 51.38 34.9482 51.168 35.1322 51C35.3162 50.824 35.5442 50.736 35.8162 50.736C36.0882 50.736 36.3162 50.82 36.5002 50.988C36.6842 51.148 36.7762 51.352 36.7762 51.6C36.7762 51.864 36.6842 52.088 36.5002 52.272C36.3242 52.448 36.0962 52.536 35.8162 52.536ZM42.1649 53.52C42.9729 53.52 43.6209 53.756 44.1089 54.228C44.5969 54.7 44.8409 55.4 44.8409 56.328V60H43.3409V56.52C43.3409 55.96 43.2089 55.54 42.9449 55.26C42.6809 54.972 42.3049 54.828 41.8169 54.828C41.2649 54.828 40.8289 54.996 40.5089 55.332C40.1889 55.66 40.0289 56.136 40.0289 56.76V60H38.5289V53.592H39.9569V54.42C40.2049 54.124 40.5169 53.9 40.8929 53.748C41.2689 53.596 41.6929 53.52 42.1649 53.52ZM53.0784 51.096V60H51.6384V59.172C51.3904 59.476 51.0824 59.704 50.7144 59.856C50.3544 60.008 49.9544 60.084 49.5144 60.084C48.8984 60.084 48.3424 59.948 47.8464 59.676C47.3584 59.404 46.9744 59.02 46.6944 58.524C46.4144 58.02 46.2744 57.444 46.2744 56.796C46.2744 56.148 46.4144 55.576 46.6944 55.08C46.9744 54.584 47.3584 54.2 47.8464 53.928C48.3424 53.656 48.8984 53.52 49.5144 53.52C49.9384 53.52 50.3264 53.592 50.6784 53.736C51.0304 53.88 51.3304 54.096 51.5784 54.384V51.096H53.0784ZM49.6944 58.8C50.0544 58.8 50.3784 58.72 50.6664 58.56C50.9544 58.392 51.1824 58.156 51.3504 57.852C51.5184 57.548 51.6024 57.196 51.6024 56.796C51.6024 56.396 51.5184 56.044 51.3504 55.74C51.1824 55.436 50.9544 55.204 50.6664 55.044C50.3784 54.876 50.0544 54.792 49.6944 54.792C49.3344 54.792 49.0104 54.876 48.7224 55.044C48.4344 55.204 48.2064 55.436 48.0384 55.74C47.8704 56.044 47.7864 56.396 47.7864 56.796C47.7864 57.196 47.8704 57.548 48.0384 57.852C48.2064 58.156 48.4344 58.392 48.7224 58.56C49.0104 58.72 49.3344 58.8 49.6944 58.8Z" fill="#545454"/>
<path fill-rule="evenodd" clip-rule="evenodd" d="M27.5 14C23.6333 14 21.2167 16 20.25 20C21.7 18 23.3917 17.25 25.325 17.75C26.4281 18.035 27.2164 18.8633 28.0891 19.7794C29.5107 21.2722 31.1561 23 34.75 23C38.6167 23 41.0333 21 42 17C40.55 19 38.8583 19.75 36.925 19.25C35.8219 18.965 35.0336 18.1367 34.1609 17.2206C32.7393 15.7278 31.0939 14 27.5 14ZM20.25 23C16.3833 23 13.9667 25 13 29C14.45 27 16.1417 26.25 18.075 26.75C19.1781 27.0356 19.9664 27.8633 20.8391 28.7794C22.2607 30.2722 23.9061 32 27.5 32C31.3667 32 33.7833 30 34.75 26C33.3 28 31.6083 28.75 29.675 28.25C28.5719 27.965 27.7836 27.1367 26.9109 26.2206C25.4893 24.7278 23.8439 23 20.25 23Z" fill="#06B6D4"/>
</svg>
